<?xml version="1.0" encoding="utf-8"?>
<!-- Generator: Adobe Illustrator 23.0.6, SVG Export Plug-In . SVG Version: 6.00 Build 0)  -->
<svg version="1.1" id="Calque_1" xmlns="http://www.w3.org/2000/svg" xmlns:xlink="http://www.w3.org/1999/xlink" x="0px" y="0px"
	 viewBox="0 0 24 24" style="enable-background:new 0 0 24 24;" xml:space="preserve">
<style type="text/css">
	.st0{fill:none;}
	.st1{fill:#F3E049;}
</style>
<path class="st0" d="M0,0h24v24H0V0z"/>
<path class="st1" d="M12,3c-0.6,0-1,0.5-1,1v8c0,0.6,0.4,1,1,1s1-0.4,1-1V4C13,3.5,12.6,3,12,3z M17.1,5.9c-0.4,0.4-0.4,1,0,1.4
	C18.3,8.4,19,10,19,11.8c0.1,3.8-3.1,7.1-6.9,7.2C8.2,19,5,15.9,5,12c0-1.8,0.7-3.5,1.9-4.8c0.4-0.4,0.4-1,0-1.4
	c-0.4-0.4-1.1-0.4-1.4,0C4,7.4,3.1,9.5,3,11.7c-0.1,4.9,3.8,9.1,8.7,9.2c5.1,0.2,9.3-3.9,9.3-9c0-2.4-0.9-4.5-2.4-6.1
	C18.2,5.5,17.5,5.5,17.1,5.9z"/>
</svg>
