<?xml version="1.0" encoding="utf-8"?>
<!-- Generator: Adobe Illustrator 16.0.0, SVG Export Plug-In . SVG Version: 6.00 Build 0)  -->
<!DOCTYPE svg PUBLIC "-//W3C//DTD SVG 1.1//EN" "http://www.w3.org/Graphics/SVG/1.1/DTD/svg11.dtd">
<svg version="1.1" id="Calque_1" xmlns="http://www.w3.org/2000/svg" xmlns:xlink="http://www.w3.org/1999/xlink" x="0px" y="0px"
	 width="500px" height="500px" viewBox="0 0 500 500" enable-background="new 0 0 500 500" xml:space="preserve">
<g>
	<path fill-rule="evenodd" clip-rule="evenodd" fill="#F3DF49" d="M172.378,415.148c-3.488,13.313-10.633,20.889-22.802,22.073
		c-14.427,1.405-23.477-6.124-28.696-20.724c-2.394,12.421-7.972,21.159-17.894,26.645c-6.948,3.841-14.49,4.719-22.289,3.562
		c-14.37-2.132-26.364-14.549-27.848-28.797c-1.979-19.002,6.082-29.853,29.593-39.271c-12.424-4.309-20.299-12.134-20.303-25.479
		c-0.004-13.133,7.312-21.235,20.551-25.521c-14.25-5.27-21.961-14.316-20.335-28.969c1.354-12.205,9.121-19.113,21.848-22.359
		c-14.83-4.687-23.339-13.586-21.908-28.949c1.164-12.49,9.363-19.299,21.869-22.973c-13.719-3.908-22.001-11.83-22.013-25.799
		c-0.012-13.87,8.268-21.765,22.005-26.01c-13.69-3.646-21.513-11.402-21.975-24.698c-0.475-13.642,7.098-21.928,21.01-26.658
		c-10.675-2.444-18.799-6.707-24.5-14.781c-5.847-8.283-7.341-17.482-5.262-27.123c3.128-14.501,15.316-25.274,29.055-26.34
		c18.784-1.457,29.639,6.441,38.465,28.48c4.899-14.804,14.549-22.523,29.98-20.422c11.678,1.591,18.334,9.275,21.35,21.641
		C176.994,67.79,185.9,59.494,201.16,60.84c12.487,1.102,19.517,8.972,22.918,21.688c4.226-13.19,11.57-21.511,25.328-21.795
		c14.588-0.301,22.442,8.162,26.579,21.666c4.697-14.482,12.373-21.234,24.113-21.682c13.211-0.503,21.055,5.107,27.326,20.163
		c4.541-12.979,12.736-20.614,26.545-20.14c13.771,0.473,21.135,8.875,24.998,21.883c6.646-21.575,18.33-30.632,37.492-29.694
		c14.148,0.691,27.387,12.302,30.109,26.408c3.703,19.185-3.877,30.778-27.811,41.948c13.576,4.313,21.66,12.716,20.854,27.282
		c-0.715,12.925-8.457,20.309-21.578,23.994c14.623,4.846,22.818,13.625,21.51,28.688c-1.111,12.791-9.281,19.672-21.912,23.042
		c13.02,3.924,21.494,11.103,22.033,24.697c0.584,14.756-7.938,22.88-21.959,27.248c12.754,3.442,20.764,10.377,21.852,23.164
		c1.225,14.37-6.412,23.035-20.096,28.135c14.201,5.048,21.66,14.242,20.027,28.937c-1.336,12.003-9.096,18.728-21.207,22.209
		c23.504,7.777,33.904,22.86,26.834,46.619c-4.336,14.575-19.533,23.161-35.041,21.74c-16.168-1.481-27.477-12.49-30.955-31.227
		c-4.549,13.002-12.049,21.421-25.672,21.558c-13.443,0.135-21.533-7.322-25.965-20.605c-5.092,14.255-14.131,21.958-28.748,20.445
		c-12.441-1.287-19.355-9.28-22.605-21.982c-4.5,14.652-13.217,23.244-28.503,22.051c-12.733-0.994-19.693-9.261-23.421-21.835
		c-3.891,13.544-11.654,21.797-25.549,21.902C184.753,437.452,176.71,429.417,172.378,415.148z"/>
	<path fill-rule="evenodd" clip-rule="evenodd" fill="#F3DF49" d="M382.256,271.397c-0.67-1.331-0.973-2.093-1.41-2.769
		c-0.902-1.397-1.813-2.796-2.828-4.111c-11.135-14.426-26.525-17.766-43.381-15.556c-15.201,1.993-27.23,9.455-31.973,24.898
		c-4.865,15.847-2.439,30.812,10.57,41.909c6.822,5.82,15.451,9.588,23.451,13.937c5.98,3.25,12.393,5.706,18.371,8.961
		c5.109,2.782,7.57,7.396,6.791,13.355c-0.766,5.857-4.592,9.248-9.908,10.661c-11.373,3.021-21.838,1.471-30.318-7.466
		c-2.275-2.396-4.242-5.086-6.672-8.028c-7.547,4.397-15.068,8.779-22.354,13.024c0.145,1.047,0.119,1.4,0.248,1.684
		c0.275,0.604,0.607,1.187,0.955,1.752c12.4,20.1,31.336,26.729,53.771,25.846c8.553-0.337,16.813-2.1,24.371-6.485
		c22.512-13.064,25.699-46.285,5.803-63.168c-4.396-3.73-9.434-6.869-14.563-9.535c-8.846-4.6-18.156-8.31-26.961-12.977
		c-6.648-3.524-8.828-9.79-6.625-15.972c2.012-5.64,7.311-8.31,14.619-7.806c7.756,0.533,12,5.754,16.102,11.963
		C367.641,280.802,374.725,276.244,382.256,271.397z"/>
	<path fill-rule="evenodd" clip-rule="evenodd" fill="#F3DF49" d="M192.82,363.368c7.214,17.894,26.003,28.183,46.758,26.089
		c21.129-2.132,32.518-11.274,36.711-29.905c0.979-4.342,1.34-8.905,1.355-13.368c0.115-29.979,0.061-59.959,0.063-89.938
		c0-1.777,0-3.555,0-5.625c-9.863,0-19.104,0-28.955,0c0,2.278,0,4.23,0,6.182c-0.001,29.48,0.044,58.96-0.06,88.439
		c-0.013,3.616-0.215,7.452-1.447,10.771c-0.942,2.542-3.242,5.217-5.648,6.459c-7.059,3.645-15.73,1.284-20.61-5.032
		c-1.905-2.466-3.604-5.093-5.493-7.783C207.781,354.321,200.398,358.786,192.82,363.368z"/>
	<path fill-rule="evenodd" clip-rule="evenodd" fill="#2E2E2D" d="M382.256,271.397c-7.531,4.847-14.615,9.404-21.939,14.118
		c-4.102-6.209-8.346-11.43-16.102-11.963c-7.309-0.504-12.607,2.166-14.619,7.806c-2.203,6.182-0.023,12.447,6.625,15.972
		c8.805,4.667,18.115,8.377,26.961,12.977c5.129,2.666,10.166,5.805,14.563,9.535c19.896,16.883,16.709,50.104-5.803,63.168
		c-7.559,4.386-15.818,6.148-24.371,6.485c-22.436,0.883-41.371-5.746-53.771-25.846c-0.348-0.565-0.68-1.148-0.955-1.752
		c-0.129-0.283-0.104-0.637-0.248-1.684c7.285-4.245,14.807-8.627,22.354-13.024c2.43,2.942,4.396,5.632,6.672,8.028
		c8.48,8.937,18.945,10.487,30.318,7.466c5.316-1.413,9.143-4.804,9.908-10.661c0.779-5.959-1.682-10.573-6.791-13.355
		c-5.979-3.255-12.391-5.711-18.371-8.961c-8-4.349-16.629-8.116-23.451-13.937c-13.01-11.098-15.436-26.063-10.57-41.909
		c4.742-15.443,16.771-22.905,31.973-24.898c16.855-2.21,32.246,1.13,43.381,15.556c1.016,1.315,1.926,2.714,2.828,4.111
		C381.283,269.305,381.586,270.066,382.256,271.397z"/>
	<path fill-rule="evenodd" clip-rule="evenodd" fill="#2E2E2D" d="M192.82,363.368c7.578-4.582,14.961-9.047,22.674-13.711
		c1.89,2.69,3.588,5.317,5.493,7.783c4.88,6.316,13.552,8.677,20.61,5.032c2.406-1.242,4.706-3.917,5.648-6.459
		c1.232-3.319,1.435-7.155,1.447-10.771c0.104-29.479,0.059-58.959,0.06-88.439c0-1.951,0-3.903,0-6.182c9.851,0,19.091,0,28.955,0
		c0,2.07,0,3.848,0,5.625c-0.002,29.979,0.053,59.958-0.063,89.938c-0.016,4.463-0.377,9.026-1.355,13.368
		c-4.193,18.631-15.582,27.773-36.711,29.905C218.823,391.551,200.034,381.262,192.82,363.368z"/>
	<g>
		<g>
			<path fill="#2E2E2D" d="M193.561,230.859v-32.043h6.979l14.538,21.398v-21.398h6.664v32.043h-7.197l-14.32-20.896v20.896H193.561
				z"/>
			<path fill="#2E2E2D" d="M261.357,230.859h-7.801l-3.102-7.278h-14.199l-2.932,7.278h-7.609l13.835-32.043h7.584L261.357,230.859z
				 M248.152,218.182l-4.895-11.89l-4.797,11.89H248.152z"/>
			<path fill="#2E2E2D" d="M265.234,230.859v-32.043h6.979l14.537,21.398v-21.398h6.664v32.043h-7.195l-14.32-20.896v20.896H265.234
				z"/>
			<path fill="#2E2E2D" d="M308.994,230.859v-26.622h-10.539v-5.421h28.229v5.421h-10.518v26.622H308.994z"/>
			<path fill="#2E2E2D" d="M331.311,230.859v-32.043h26.34v5.421h-19.168v7.104h17.834v5.398h-17.834v8.721h19.846v5.399H331.311z"
				/>
			<path fill="#2E2E2D" d="M362.592,220.434l6.979-0.612c0.42,2.113,1.273,3.665,2.557,4.655c1.285,0.991,3.018,1.486,5.197,1.486
				c2.311,0,4.051-0.44,5.223-1.322c1.17-0.881,1.756-1.912,1.756-3.093c0-0.757-0.246-1.402-0.738-1.935
				c-0.494-0.531-1.354-0.994-2.582-1.388c-0.84-0.262-2.754-0.729-5.742-1.398c-3.844-0.859-6.541-1.916-8.092-3.17
				c-2.182-1.763-3.271-3.912-3.271-6.447c0-1.632,0.512-3.158,1.539-4.579c1.025-1.421,2.502-2.503,4.434-3.246
				c1.93-0.743,4.26-1.114,6.99-1.114c4.459,0,7.814,0.882,10.068,2.645c2.252,1.764,3.436,4.116,3.549,7.06l-7.172,0.284
				c-0.307-1.646-0.965-2.83-1.975-3.552c-1.01-0.721-2.523-1.082-4.543-1.082c-2.084,0-3.717,0.387-4.895,1.158
				c-0.76,0.496-1.139,1.159-1.139,1.989c0,0.758,0.355,1.406,1.066,1.945c0.904,0.686,3.102,1.399,6.59,2.143
				s6.07,1.512,7.742,2.306s2.98,1.88,3.924,3.257c0.945,1.377,1.418,3.078,1.418,5.104c0,1.836-0.564,3.556-1.695,5.158
				s-2.73,2.794-4.799,3.573c-2.066,0.779-4.643,1.17-7.729,1.17c-4.49,0-7.939-0.937-10.346-2.809
				C364.498,226.747,363.061,224.018,362.592,220.434z"/>
		</g>
	</g>
</g>
</svg>
