<svg width="630" xmlns="http://www.w3.org/2000/svg" viewBox="0 0 630 630" height="630">
<path fill="#f7df1e" d="m0,0h630v630h-630z"/>
<path d="m165.65,526.4737 48.2125-29.1775c9.3012,16.4913 17.7625,30.4438 38.0575,30.4438 19.4537,0 31.7187-7.6097 31.7187-37.21v-201.3h59.2038v202.1375c0,61.32-35.9438,89.2312-88.385,89.2312-47.3612,0-74.8525-24.5287-88.8075-54.13"/>
<path d="m375,520.13 48.2063-27.9112c12.69,20.7237 29.1825,35.9475 58.3612,35.9475 24.5312,0 40.1738-12.2648 40.1738-29.1812 0-20.2987-16.0688-27.4887-43.135-39.3263l-14.7975-6.3475c-42.715-18.1812-71.05-41.0175-71.05-89.2275 0-44.4038 33.8313-78.2375 86.695-78.2375 37.6375,0 64.7025,13.1112 84.1538,47.3662l-46.0963,29.6012c-10.15-18.1825-21.1425-25.3712-38.0575-25.3712-17.3388,0-28.335,10.995-28.335,25.3712 0,17.7625 10.9962,24.9525 36.3675,35.9488l14.8,6.3425c50.325,21.5688 78.66,43.5575 78.66,93.0337 0,53.2875-41.8663,82.465-98.11,82.465-54.9762,0-90.5-26.2175-107.8363-60.4737"/>
<path d="m29.6609,108.4783 0-77.4 10.6,0 39.7,52.7 .2,0 0-50.7 14.7,0 0,76.9-10.6,0-39.7-52.7-.2,0 0,51.2-14.7,0"/>
<path d="m189.2374,92.5783-26.2,0-6.2,15.9-15.5,0 29.4-77.4 11.4,0 28.6,77.4-15.7,0-5.8-15.9m-4.1-12-9.4-27.4-.2,0-8.3,27.4 17.9,0"/>
<path d="m257.2156,108.4783 0-77.4 10.6,0 39.7,52.7 .2,0 0-50.7 14.7,0 0,76.9-10.6,0-39.7-52.7-.2,0 0,51.2-14.7,0"/>
<path d="m399.6921,45.8783 0,62.6-14.7,0 0-62.6-15.2,0 0-12.8 45.1,0 0,12.8-15.2,0"/>
<path d="m501.3093,45.8783-24.3,0 0,16.6 23.4,0 0,12.8-23.4,0 0,20.4 24.3,0 0,12.8-39,0 0-75.4 39,0 0,12.8"/>
<path d="m595.5374,39.4783-6.9,10.2c-3.0667-4.1333-6.8334-6.1999-11.3-6.2-2.4,.0001-4.5334,.8334-6.4,2.5-1.8667,1.6001-2.8,3.6001-2.8,6-0,1.6667 .5333,3.1667 1.6,4.5 1.1333,1.2667 2.5666,2.3334 4.3,3.2 1.8,.8 3.7666,1.6334 5.9,2.5 2.1333,.8667 4.2333,1.9 6.3,3.1 2.1333,1.1334 4.0666,2.5 5.8,4.1 1.7999,1.5334 3.2333,3.6334 4.3,6.3 1.1333,2.6 1.6999,5.6 1.7,9-0,7.6667-2.2334,13.9-6.7,18.7-4.4667,4.7333-10.5,7.1-18.1,7.1-9.6-0-17.3333-4.9-23.2-14.7l9.5-9.3c1.0666,3.0667 2.8333,5.6667 5.3,7.8 2.5333,2.1333 5.3,3.2 8.3,3.2 2.9333,0 5.2666-1.0667 7-3.2 1.8-2.1333 2.7-4.7 2.7-7.7-0-4.2666-2.4334-7.5666-7.3-9.9-.8-.4-2.7334-1.2-5.8-2.4-5.5334-2.2666-9.7333-4.9-12.6-7.9-2.8-3.0666-4.2-7.3-4.2-12.7-0-6.3333 2.1-11.6666 6.3-16 4.2-4.3999 9.4333-6.5999 15.7-6.6 3.4666,.0001 7.2,.8001 11.2,2.4 4.0666,1.5334 7.1999,3.5334 9.4,6"/>
</svg>
