<svg xmlns="http://www.w3.org/2000/svg" viewBox="0 0 142 52"><g fill="currentColor" fill-rule="evenodd"><g fill="currentColor"><g><g><path d="M1.717 7.492h4.427c.418 0 .749.316.749.789 0 .472-.331.787-.75.787H1.718v5.357h5.154c.418 0 .749.293.749.787 0 .496-.331.788-.75.788H.859C.352 16 0 15.663 0 15.19V1.506c0-.473.374-.81.858-.81h6.013c.418 0 .749.315.749.787 0 .473-.331.788-.75.788H1.718v5.221zM16.624 15.197c0 .49-.272.803-.692.803-.42 0-.693-.312-.693-.803V.803c0-.49.273-.803.693-.803.42 0 .692.313.692.803v14.394zM30.902 8.594c0-1.241-.958-2.243-2.155-2.243-1.198 0-2.156.936-2.156 2.243v.937h4.31v-.937zm-4.31 2.288v1.328c0 1.35 1 2.309 2.242 2.309.783 0 1.392-.327 1.806-.588.24-.152.414-.24.654-.24.391 0 .719.35.719.763 0 .348-.197.566-.546.784-.63.392-1.501.762-2.633.762-2.243 0-3.897-1.59-3.897-3.79V8.594c0-2.2 1.872-3.724 3.81-3.724 1.937 0 3.81 1.524 3.81 3.724v1.438c0 .48-.349.85-.872.85h-5.094zM42.016 15.287l-3.161-9.324c-.044-.134-.065-.223-.065-.335 0-.402.368-.758.845-.758.41 0 .67.223.779.58l2.273 7.227.26.892.259-.892 2.273-7.227c.108-.357.368-.58.779-.58.476 0 .844.356.844.758 0 .112-.02.2-.065.335l-3.16 9.324c-.151.423-.411.713-.93.713-.52 0-.78-.29-.931-.713M59.994 8.594c0-1.241-.958-2.243-2.155-2.243-1.197 0-2.155.936-2.155 2.243v.937h4.31v-.937zm-4.31 2.288v1.328c0 1.35 1.001 2.309 2.242 2.309.784 0 1.393-.327 1.807-.588.24-.152.414-.24.654-.24.39 0 .718.35.718.763 0 .348-.196.566-.545.784-.63.392-1.502.762-2.634.762-2.242 0-3.897-1.59-3.897-3.79V8.594c0-2.2 1.873-3.724 3.81-3.724 1.938 0 3.81 1.524 3.81 3.724v1.438c0 .48-.348.85-.871.85h-5.094zM70.913 15.207c0 .485-.325.793-.823.793-.497 0-.822-.308-.822-.793V5.663c0-.396.281-.661.65-.661.302 0 .498.176.67.397.152.176.282.353.477.353.15 0 .303-.066.54-.22.477-.31 1.127-.662 2.057-.662 1.645 0 3.226 1.543 3.226 3.813v6.524c0 .485-.325.793-.823.793-.498 0-.823-.308-.823-.793V8.683c0-1.3-.91-2.315-2.165-2.315-1.276 0-2.164.992-2.164 2.315v6.524zM92.319 16c-.521 0-.885-.337-.885-.808V1.503c0-.493.364-.807.885-.807s.884.314.884.807V14.43h5.103c.43 0 .748.268.748.785 0 .516-.318.785-.748.785h-5.987zM108.449 10.882c-1.27 0-2.212.61-2.212 1.785 0 1.199.92 1.852 2.146 1.852 1.204 0 2.168-.697 2.168-1.917v-1.72h-2.102zm3.766 4.4c0 .413-.285.631-.68.631-.283 0-.502-.218-.678-.436-.153-.174-.24-.304-.438-.304-.22 0-.394.13-.612.26-.482.284-.986.567-1.753.567-1.97 0-3.459-1.328-3.459-3.333 0-2.09 1.686-3.136 3.854-3.136h2.102v-.915c0-1.198-.898-2.265-2.146-2.265-.657 0-1.204.24-1.686.479-.175.088-.438.218-.657.218-.438 0-.745-.349-.745-.74 0-.371.263-.61.592-.785.59-.305 1.533-.653 2.496-.653 2.058 0 3.81 1.59 3.81 3.746v6.666zM126.51 8.532c0-1.285-.968-2.35-2.173-2.35-1.206 0-2.174 1.043-2.174 2.35v3.612c0 1.263.968 2.35 2.174 2.35 1.27 0 2.174-1.153 2.174-2.35V8.532zm-5.983 6.692V.798c0-.488.323-.798.818-.798.495 0 .818.31.818.798v4.565c0 .133.086.244.193.244.109 0 .237-.067.345-.156.538-.42 1.227-.775 1.98-.775 1.98 0 3.465 1.551 3.465 3.856v3.612c0 2.238-1.528 3.856-3.4 3.856-.818 0-1.4-.355-1.83-.62-.236-.156-.409-.244-.58-.244-.173 0-.323.133-.453.288-.172.221-.409.443-.71.443-.323 0-.646-.222-.646-.643zM136.727 8.115c0 .959 1.251 1.307 2.212 1.59 1.43.414 3.061 1.002 3.061 3.05 0 1.83-1.475 3.245-3.642 3.245-.983 0-1.766-.218-2.614-.632-.447-.218-.648-.457-.648-.85 0-.457.38-.74.782-.74.223 0 .469.087.737.24.38.196 1.095.5 1.743.5 1.184 0 1.966-.784 1.966-1.72 0-1.002-1.005-1.416-2.19-1.743-1.183-.326-3.06-1.023-3.06-2.94 0-1.808 1.697-3.245 3.62-3.245.96 0 1.81.261 2.434.588.358.174.582.414.582.784 0 .392-.336.719-.76.719-.201 0-.358-.087-.56-.174-.535-.24-.982-.436-1.697-.436-1.05 0-1.966.784-1.966 1.764" transform="translate(-90 -26) translate(90 26) translate(0 36)"/></g><g><path d="M12.822 23.95c-3.958.218-7.5-1.69-9.633-4.703-.11-.154.075-.343.228-.236 2.702 1.899 6.994 1.332 9.765-3.817C-.798 19.162.937 1.114 12.21 1.279c3.947.057 7.417 2.109 9.392 5.279l.038-.034c.231-.204.576-.234.821-.047.337.258.343.752.045 1.022l-.263.232c.733 1.557 1.128 3.31 1.086 5.16-.134 5.884-4.745 10.742-10.507 11.06M12.21.168C5.477.169 0 5.756 0 12.623c0 6.866 5.477 12.453 12.21 12.453 6.732 0 12.21-5.587 12.21-12.453C24.42 5.756 18.941.169 12.21.169" transform="translate(-90 -26) translate(90 26) translate(57)"/><path d="M19.955 9.768c-.269.238-.677.209-.91-.064-.234-.272-.206-.69.062-.928l2.657-2.297c.267-.238.677-.208.91.064.232.273.204.69-.063.928l-2.656 2.297zm-.106 4.42c.073-.465.297-.892.646-1.199l1.202-1.058c1.499-1.333 4.036-5.602 5.533-8.245.428-.756-.305-1.643-1.107-1.34-2.815 1.057-7.376 2.894-8.887 4.206l-1.204 1.055c-.35.307-.797.47-1.258.476-4.06.048-5.259 1.67-5.259 1.67l.528.561s2.357-.348 3.69 1.232l-1.124.98.677.801-.78.687 1.459 1.784.151-.192-.674-1.876 1.686 1.976.396-.347-.495-2.185s.843.932 1.343 1.522c1.334 1.577.612 3.934.612 3.934l.468.615s1.749-.968 2.397-5.057z" transform="translate(-90 -26) translate(90 26) translate(57)"/></g></g></g></g></svg>