<?xml version="1.0" encoding="utf-8"?>
<!-- Generator: Adobe Illustrator 23.0.3, SVG Export Plug-In . SVG Version: 6.00 Build 0)  -->
<svg version="1.1" id="Calque_1" xmlns="http://www.w3.org/2000/svg" xmlns:xlink="http://www.w3.org/1999/xlink" x="0px" y="0px"
	 viewBox="0 0 118.6 42.2" style="enable-background:new 0 0 118.6 42.2;" xml:space="preserve">
<style type="text/css">
	.st0{fill:url(#SVGID_1_);}
	.st1{fill:#FF6600;}
</style>
<title>logo-lucca</title>
<radialGradient id="SVGID_1_" cx="15.29" cy="29.2297" r="17.9" gradientTransform="matrix(1 0 0 -1 0 44)" gradientUnits="userSpaceOnUse">
	<stop  offset="5.000000e-02" style="stop-color:#F99B1C"/>
	<stop  offset="1" style="stop-color:#FEBC11"/>
</radialGradient>
<path class="st0" d="M27.7,13.9c0-7.1-5.7-12.8-12.8-12.8C7.8,1.1,2,6.8,2,13.9c0,5.4,3.4,10.3,8.5,12.1c-4,2.4-5.2,7.5-2.8,11.5
	c0.7,1.2,1.8,2.2,3,2.9c0.8,0.7,2.1,0.6,2.8-0.2c0.7-0.8,0.6-2.1-0.2-2.8c-0.2-0.1-0.4-0.3-0.6-0.3c-2.1-1.2-2.9-4-1.6-6.1
	c1.2-2.1,4-2.9,6.1-1.6c2.1,1.2,2.9,4,1.6,6.1c-0.4,0.7-1,1.2-1.6,1.6c-0.9,0.6-1.2,1.9-0.6,2.8c0.3,0.5,0.9,0.9,1.6,0.9
	c0.4,0,0.7-0.1,1-0.3c4-2.3,5.4-7.4,3.1-11.4c-0.7-1.2-1.7-2.3-2.9-3C24.3,24.2,27.7,19.3,27.7,13.9z M19,21.2
	c-0.9,0.5-2.1,0.2-2.7-0.7c-0.5-0.9-0.2-2.1,0.7-2.7c2.1-1.2,2.9-4,1.6-6.1s-4-2.9-6.1-1.6c-2.1,1.2-2.9,4-1.6,6.1
	c0.4,0.7,1,1.2,1.6,1.6c1,0.4,1.6,1.5,1.2,2.6c-0.4,1-1.5,1.6-2.6,1.2c-0.2-0.1-0.4-0.2-0.6-0.4c-4-2.3-5.4-7.4-3.1-11.4
	C9.8,5.7,15,4.4,19,6.7c4,2.3,5.4,7.4,3.1,11.4C21.3,19.4,20.2,20.4,19,21.2L19,21.2z"/>
<path class="st1" d="M43.3,40.7h-2.9V12.5h2.9V40.7z"/>
<path class="st1" d="M64.2,35.6c0,2,0.1,3.6,0.2,5.1h-2.6l-0.1-3h-0.1c-1.3,2.2-3.6,3.5-6.1,3.4c-2.9,0-6.3-1.7-6.3-8.3V21.5h3v10.8
	c0,3.7,1.1,6.3,4.3,6.3c2.8-0.1,5.1-2.4,5-5.2c0,0,0,0,0,0V21.5h2.9L64.2,35.6z"/>
<path class="st1" d="M83,40c-1.6,0.7-3.4,1.1-5.2,1.1c-5.5,0-9.1-3.9-9.1-9.8S72.6,21,78.5,21c1.6,0,3.2,0.3,4.6,1l-0.7,2.4
	c-1.2-0.7-2.6-1-3.9-1c-4.4,0-6.8,3.6-6.8,7.7c0,4.7,2.8,7.6,6.7,7.6c1.4,0,2.9-0.4,4.2-1L83,40z"/>
<path class="st1" d="M100,40c-1.6,0.7-3.4,1.1-5.2,1.1c-5.5,0-9.1-3.9-9.1-9.8S89.6,21,95.5,21c1.6,0,3.2,0.3,4.6,1l-0.7,2.4
	c-1.2-0.7-2.6-1-4-1c-4.4,0-6.8,3.6-6.8,7.7c0,4.7,2.8,7.6,6.7,7.6c1.4,0,2.9-0.4,4.2-1L100,40z"/>
<path class="st1" d="M116.7,36.1c0,1.5,0.1,3.1,0.3,4.6h-2.7l-0.3-2.5h-0.1c-1.3,1.9-3.4,3-5.7,2.9c-2.9,0.2-5.4-2.1-5.6-5
	c0-0.1,0-0.3,0-0.4c0-4.6,4-7.1,11.2-7.1c0-1.6,0-5.3-4.4-5.3c-1.7,0-3.3,0.5-4.7,1.4l-0.7-2c1.8-1.1,3.8-1.6,5.8-1.6
	c5.4,0,6.8,3.8,6.8,7.6L116.7,36.1z M113.8,30.7c-3.6,0-8.2,0.5-8.2,4.6c0,2.5,1.6,3.6,3.3,3.6c2.6,0.1,4.8-1.9,4.9-4.5V30.7z"/>
</svg>
