<svg xmlns="http://www.w3.org/2000/svg" xmlns:xlink="http://www.w3.org/1999/xlink" viewBox="0 0 222 48" version="1.1"><!-- Generator: Sketch 63.1 (92452) - https://sketch.com --><title>logo-seyos-RVB</title><desc>Created with Sketch.</desc><g id="logo-seyos-RVB" stroke="none" stroke-width="1" fill="none" fill-rule="evenodd"><g fill-rule="nonzero"><path d="M120.8,1.89 L109.8,21.73 C106.960314,26.8669395 105.470495,32.6404205 105.47,38.51 L105.47,46.42 L117.68,46.42 L117.68,39.31 C117.679239,32.9358675 119.440798,26.6856213 122.77,21.25 L134.6,1.89 L120.8,1.89 Z" id="Path" fill="#FF8273"/><path d="M20.87,47.18 C17.0067951,47.1994504 13.1674168,46.5741996 9.51,45.33 C5.9990257,44.1288243 2.76507206,42.2347 7.10542736e-15,39.76 L6.87,31.53 C10.9099178,34.9465394 16.0192495,36.8395397 21.31,36.88 C22.6207705,36.9538296 23.9278859,36.6813702 25.1,36.09 C25.9180191,35.6351326 26.4180742,34.7658061 26.4,33.83 L26.4,33.7 C26.4058038,33.2686932 26.2952609,32.843794 26.08,32.47 C25.7746581,32.0449121 25.3694129,31.7014841 24.9,31.47 C24.1739097,31.0571577 23.4063386,30.7219738 22.61,30.47 C21.66,30.16 20.42,29.83 18.89,29.47 C16.52,28.92 14.31,28.32 12.28,27.66 C10.4044069,27.0691435 8.62551188,26.206649 7,25.1 C5.51747114,24.1050501 4.28532266,22.7804905 3.4,21.23 C2.47960077,19.456947 2.03185864,17.4765491 2.1,15.48 L2.1,15.35 C2.07590726,13.3837417 2.47849145,11.4356437 3.28,9.64 C4.06731085,7.89647421 5.24010749,6.35440049 6.71,5.13 C8.3152269,3.80372008 10.162768,2.80183659 12.15,2.18 C14.4782168,1.46633657 16.9053987,1.12875911 19.34,1.18 C22.8019462,1.12626702 26.2497961,1.63280716 29.55,2.68 C32.499619,3.66201101 35.2472119,5.1696298 37.66,7.13 L31.49,15.87 C29.5647857,14.4895763 27.4538411,13.3886531 25.22,12.6 C23.2281525,11.8596092 21.1247312,11.4639496 19,11.43 C17.8270843,11.3485319 16.6583423,11.6389678 15.66,12.26 C14.9837091,12.7036498 14.5687113,13.4513935 14.55,14.26 L14.55,14.39 C14.5355879,14.8578523 14.6571647,15.3198444 14.9,15.72 C15.2054148,16.1690425 15.6224075,16.5308956 16.11,16.77 C16.8608885,17.1616573 17.6478825,17.4798039 18.46,17.72 C19.46,18.04 20.72,18.37 22.25,18.72 C24.5896729,19.2119875 26.894607,19.856701 29.15,20.65 C31.0192565,21.2963124 32.7869892,22.2054321 34.4,23.35 C35.7887378,24.3504281 36.919818,25.6665942 37.7,27.19 C38.5046814,28.8631598 38.8989111,30.7040411 38.85,32.56 L38.85,32.69 C38.8867632,34.7936603 38.4385103,36.8775234 37.54,38.78 C36.677467,40.5468105 35.4302956,42.0980867 33.89,43.32 C32.2012606,44.6286986 30.2761671,45.5997334 28.22,46.18 C25.8314531,46.8679793 23.3555291,47.2048397 20.87,47.18 Z" id="Path" fill="#0064FF"/><polygon id="Path" fill="#0064FF" points="44.85 1.89 80.6 1.89 80.6 12.39 57 12.39 57 19.13 78.37 19.13 78.37 28.86 57 28.86 57 35.92 80.92 35.92 80.92 46.42 44.85 46.42"/><path d="M155.26,47.31 C151.991681,47.3425106 148.74929,46.72734 145.72,45.5 C142.90087,44.3630606 140.329796,42.6886359 138.15,40.57 C136.020878,38.4802864 134.322166,35.9933722 133.15,33.25 C131.927534,30.4081224 131.307814,27.343574 131.33,24.25 L131.33,24.13 C131.30659,17.9618803 133.785473,12.0479227 138.2,7.74 C140.406635,5.60403141 142.999366,3.90721814 145.84,2.74 C151.970184,0.322044591 158.789816,0.322044591 164.92,2.74 C167.737134,3.88076767 170.30751,5.55473792 172.49,7.67 C174.618525,9.7602138 176.317151,12.2470025 177.49,14.99 C178.704341,17.83407 179.320451,20.8975996 179.3,23.99 L179.3,24.12 C179.333383,30.2871766 176.852719,36.2017746 172.43,40.5 C170.229717,42.6391412 167.639604,44.3364627 164.8,45.5 C161.770635,46.7270854 158.528295,47.3422463 155.26,47.31 L155.26,47.31 Z M155.36,36.18 C156.967318,36.1870629 158.557096,35.8459087 160.02,35.18 C161.37544,34.5803356 162.591224,33.7051073 163.59,32.61 C164.585854,31.5026393 165.36289,30.2166283 165.88,28.82 C166.440288,27.3585711 166.721811,25.8051061 166.71,24.24 L166.71,24.12 C166.722759,22.5548124 166.441204,21.0011725 165.88,19.54 C164.805354,16.6826546 162.650327,14.3624095 159.88,13.08 C156.923207,11.7802069 153.556793,11.7802069 150.6,13.08 C149.237486,13.6870222 148.012662,14.5648123 147,15.66 C145.992475,16.7586643 145.213984,18.0470853 144.71,19.45 C144.169005,20.9158462 143.897964,22.4675546 143.91,24.03 L143.91,24.16 C143.903977,25.7246026 144.185309,27.2770117 144.74,28.74 C145.271417,30.1446088 146.061769,31.436986 147.07,32.55 C148.076938,33.6668143 149.302167,34.565315 150.67,35.19 C152.139549,35.8668144 153.742279,36.2051306 155.36,36.18 L155.36,36.18 Z" id="Shape" fill="#0064FF"/><path d="M203.23,47.18 C199.366868,47.1985169 195.527644,46.573291 191.87,45.33 C188.359026,44.1288243 185.125072,42.2347 182.36,39.76 L189.23,31.53 C193.270783,34.9450574 198.379559,36.8378518 203.67,36.88 C204.980841,36.9547782 206.2882,36.6822681 207.46,36.09 C208.28129,35.6384588 208.782594,34.7669608 208.76,33.83 L208.76,33.7 C208.770979,33.2680821 208.660078,32.8418055 208.44,32.47 C208.136276,32.0472597 207.734881,31.704187 207.27,31.47 C206.542074,31.0608337 205.77489,30.7258188 204.98,30.47 C203.98,30.16 202.78,29.83 201.26,29.47 C198.88,28.92 196.68,28.32 194.64,27.66 C192.755105,27.0780884 190.965983,26.2222746 189.33,25.12 C187.858695,24.1242036 186.639775,22.7991418 185.77,21.25 C184.845709,19.4780322 184.394486,17.4974712 184.46,15.5 L184.46,15.37 C184.435907,13.4037417 184.838491,11.4556437 185.64,9.66 C186.427311,7.91647421 187.600107,6.37440049 189.07,5.15 C190.675227,3.82372008 192.522768,2.82183659 194.51,2.2 C196.838217,1.48633657 199.265399,1.14875911 201.7,1.2 C205.161946,1.14626702 208.609796,1.65280716 211.91,2.7 C214.847549,3.66294637 217.587873,5.14658235 220,7.08 L213.83,15.82 C211.909444,14.4378708 209.801545,13.3367797 207.57,12.55 C205.578036,11.8288972 203.478372,11.4502137 201.36,11.43 C200.187084,11.3485319 199.018342,11.6389678 198.02,12.26 C197.343709,12.7036498 196.928711,13.4513935 196.91,14.26 L196.91,14.39 C196.900567,14.8572726 197.021784,15.3178982 197.26,15.72 C197.568107,16.1666411 197.984406,16.5278917 198.47,16.77 C199.221706,17.1598837 200.008527,17.4779604 200.82,17.72 C201.82,18.04 203.08,18.37 204.61,18.72 C206.949673,19.2119875 209.254607,19.856701 211.51,20.65 C213.381104,21.2919833 215.149436,22.2014112 216.76,23.35 C218.14904,24.3528927 219.28287,25.6682732 220.07,27.19 C220.866525,28.8656073 221.257075,30.7053043 221.21,32.56 L221.21,32.69 C221.245266,34.7924305 220.800663,36.8752227 219.91,38.78 C219.047195,40.5494775 217.796105,42.1013762 216.25,43.32 C214.563716,44.6267166 212.642289,45.5976146 210.59,46.18 C208.197887,46.8672748 205.718769,47.2041115 203.23,47.18 L203.23,47.18 Z" id="Path" fill="#0064FF"/><path d="M99.09,1.89 L85.29,1.89 L97.12,21.25 C100.449202,26.6856213 102.210761,32.9358675 102.21,39.31 L102.21,46.42 L114.42,46.42 L114.42,38.51 C114.420823,32.638989 112.92727,26.8643765 110.08,21.73 L99.09,1.89 Z" id="Path" fill="#0064FF"/></g></g></svg>