<svg xmlns="http://www.w3.org/2000/svg" class="home__StyledBanner-dno904-0 dLZZSL" viewBox="0 0 1357.3 1170.6"><g><g id="Q5Fdcn.tif"><g><path d="M891.9,1160.3c0.2,2.2,0.3,4.5,0.4,5.7c-2.4,1.4-4.2,3.2-6.2,3.4c-2.8,0.2-6.4,0-8.5-1.6c-5.3-3.9-5.5-4.2-9.6,1.1 c-5.5-4.5-11.1-8.9-16.5-13.5c-0.8-0.7-1.3-1.9-1.7-3c-4.4-10-8.5-20.2-13.1-30.1c-7.3-15.6-10.5-32.1-10.7-49.2c0-3,0.2-6,0-9 c-0.1-2.1-0.6-4.1-1.1-7.7c-5,3.5-8.9,6.3-12.9,9c-7.1,4.8-14.5,8.8-23.3,9.7c-1.7,0.2-3.5,1.6-5,2.8c-3.1,2.5-5.5,6.5-9,7.6 c-4.4,1.5-10.3,2.3-14.3,0.5c-6.5-2.9-12.9-4.6-19.9-5.3c-9.8-0.9-19.9,0.3-28.7-6c-12.5-8.8-25-17.5-35.1-29.2 c-3.6-4.1-7.8-7.7-11.8-11.5c-8.5-8.1-17.2-16-25.5-24.3c-14.3-14.1-28.4-28.4-42.6-42.6c-8.7-8.7-17.4-17.4-26.1-26.1 c-3.5-3.4-8-2.2-9.6,2.4c-2.8,7.7-5.7,15.3-8.7,22.9c-6.4,16-12.8,32.1-19.3,48c-7.7,18.8-17.7,36.3-28.4,53.5 c-5.8,9.3-10.4,19.2-16.1,28.6c-11.2,18.5-22.3,37-34.4,54.9c-3.7,5.5-10.2,9.1-15.5,13.5c-1.3,1-3,1.5-4.2,2.6 c-4.5,4.1-9.7,2.8-14.8,2.3c-4-0.4-7.9-1.1-12.1-1.7c1.2-3.9,1.4-7.1-5.2-6.6c-3,0.2-6.2-2.5-9.3-3.8c-4.1-1.7-8.2-3.8-12.5-4.7 c-4.3-0.8-5.3-3.8-6.9-6.9c-1.4-2.7-3.5-5-5.3-7.5c-0.5,0.3-0.9,0.6-1.4,0.8c-0.3,1.1-0.5,2.3-0.8,3.4c-0.5,0.1-1,0.3-1.5,0.4 c-0.9-2.2-1.8-4.3-2.9-7c2-0.3,3.2-0.5,5.4-0.8c-0.9-4-1.7-8-2.6-11.9c-2-8.9-4.5-17.7-5.8-26.6c-1.9-13.6-3.4-27.4-4.3-41.1 c-0.8-11.1-0.4-22.3-0.7-33.4c-0.1-7.3-0.6-14.6-0.5-21.9c0.1-5.8,0.8-11.5,1.3-17.2c0.1-0.7,0.3-1.4,0.1-2 c-3.2-10.3-0.5-20.7-0.8-31c-0.5-17.4-1.3-34.9-2-52.3c0-1-0.7-2-2.2-3c-0.4,1.8-0.7,3.7-1.3,6.7c-0.7-1.9-0.7-3.1-1.4-3.8 c-1.1-1.1-2.6-2.9-3.7-2.7c-7.8,1.4-15.5,3.7-23.3,4.9c-8.8,1.3-17.8,1.9-26.7,2.7c-0.5,0-1,0-1.5,0c-8.1,0.4-7.6,0.5-9.4,8.5 c-2.1,9.4-5.3,18.5-8.1,27.7c-1.4,4.8-2.7,9.6-4.5,14.3c-3,8-9.7,12.8-16.3,17.5c-1.5,1-4.1,0.6-6.2,0.5c-2.4-0.1-4.8-0.6-7.9-1 c0.8,2,1.3,3.2,1.9,4.6c-6.6-0.4-9.5-3.1-10.1-8.5c-0.1-0.8-2.2-2.1-3.1-1.9c-5.1,1.3-9.6,0-13.3-3.2c-1.8-1.5-4.4-4.5-3.9-5.7 c1-2.5,3.6-5.2,6.1-5.9c3.4-0.9,4.8-3,5.5-5.7c3.5-14,7-28,10.3-42.1c1-4.3,0.5-8.3-4.8-9.9c-0.9-0.3-1.6-1.6-2.2-2.5 c-5-8-5-8-14.4-8.6c0-2.5,0-5.1,0-8.6c4.4,0.7,8.4,1.2,12.4,2c3.7,0.7,6.8,1.1,8.9-3.1c0.5-1.1,3.1-1.1,4.7-1.7 c1.6-0.7,4-1.3,4.6-2.6c3.2-7.1,5.9-14.4,8.8-21.6c6.9-17.6,12.9-35.7,21-52.8c8.6-18.1,19.1-35.3,28.8-52.9 c8.5-15.6,16.5-31.5,25.5-46.8c6.1-10.4,13.7-19.9,20.6-29.8c1.5-2.2,3.1-4.3,4.1-6.7c4.6-11.3,11.9-20.7,20.1-29.5 c0.1-0.1,0.3-0.2,0.4-0.4c5-9,13.2-14.3,21.1-20.4c4.1-3.2,5.7-9.7,8.3-14.3c2.9-0.5,6.4-1,9.9-1.7c0.7-0.1,1.7-0.8,1.9-1.5 c2.4-7.2,8.4-6.5,13.6-5.5c5.1,0.9,9.1,3.9,12.2,9c4.7,7.8,4,15.3,2.9,23.5c-1.1,7.7-1,15.5-1.3,23.3c-0.8,19-4.3,37.6-8.4,56.1 c-5.1,22.9-9.8,45.9-13.5,69c-3.6,22.3-5.8,44.8-8.6,67.2c-0.5,3.9,1.1,4.7,4.9,4.3c12.4-1.3,22.8-8.2,33.5-13.3 c6-2.9,11.4-4.7,17.8-5.2c3.3-0.2,6.4-1.8,9.6-2.7c0-0.5-0.1-0.9-0.1-1.4c-1.1-0.5-2.8-0.8-3.2-1.7c-0.6-1.5-0.9-4.4-0.3-4.7 c5.6-3.1,11.8-4.1,18.2-3.1c0.9,0.2,1.8,2.7,2,4.2c0.3,1.9-0.2,3.9-0.3,5.9c0.6,0.2,1.3,0.3,1.9,0.5c0.9-2.5,1.8-5.1,3.1-8.9 c4.4,2.8,9.1,4.9,12.7,8.1c5.4,4.8,7.2,5.6,13.7,2.3c7.1-3.7,14.1-7.4,21.2-11c4.4-2.2,6.9-5.5,8.4-10.4 c5-16.3,10.6-32.5,15.9-48.7c6.3-19.3,13.5-38.3,18.3-58c2.9-11.9,5.9-23.7,9.5-35.5c4-13.1,6.2-26.8,9.2-40.3 c0.5-2.3,1.2-4.5,1.9-6.7c3.2-11.1,6.4-22.2,9.8-33.3c1.4-4.7,9.5-8.9,14.4-8.1c1.6,0.3,3.4-0.5,5.1-0.8c3.3-0.7,6.6-2.3,9.8-2 c4.6,0.4,9.1,1.9,13.4,3.5c9.4,3.4,14.1,14,12.4,24c-1.9,11.6-6.2,22.6-6.4,34.7c-0.2,8.9-3.7,17.8-5.9,26.7 c-2.1,8.4-4.4,16.7-6.5,25c-1.5,5.8-2.8,11.6-4.3,17.4c-2.2,8.7-4.6,17.3-6.9,25.9c-0.3,1.2-0.5,2.5-1.2,5.5c3-1.5,5-2,6.4-3.2 c15.9-14.4,31.9-28.7,47.6-43.3c12.5-11.7,24.5-23.9,36.9-35.7c3-2.9,6.6-5.1,9.5-8c4.9-4.8,9.6-9.6,14-14.8 c4-4.6,7.3-4.9,11.8-1.2c2.1,1.8,5.1,2.5,7.7,3.7c1.3,0.6,3.2,0.8,4,1.8c4.2,5.2,8.2,10.5,12.1,16c0.5,0.7-0.1,2.6-0.6,3.7 c-1.6,3.1-3.3,6.1-5.2,9.1c-7.4,11.2-15,22.2-22.2,33.6c-7.1,11.3-15.2,21.2-25.9,29.7c-9.9,7.9-18.5,17.7-26.8,27.4 c-12.8,14.9-26.3,29-40.4,42.7c-16,15.5-33.8,28.4-51.9,41c-1.4,0.9-2.8,1.8-4.3,2.5c-5.8,3-9.3,6.9-11.3,13.9 c-4.4,15.5-10.5,30.4-16.3,45.5c-1.4,3.7-1.1,6.1,1.3,9.4c12.1,16.3,26.6,30.2,41.4,43.7c12,11,24.7,21.2,36.9,32 c5.7,5,11,10.6,16.4,15.9c8.6,8.4,17.1,16.8,25.7,25.1c0.4,0.3,0.6,0.8,1,1.1c2.3,1.2,4.6,2.3,6.9,3.4c0.6-2.3,1.3-4.6,1.7-6.9 c3.3-18.1,6.2-36.3,9.8-54.4c3.9-19.2,8.1-38.3,12.8-57.3c2.9-11.6,6.9-22.9,10.4-34.3c0.9-3,2.2-6,2.4-9.1 c1.1-16.3,10.4-30,14-45.5c2.1-8.7,5.3-17.2,7.9-25.8c3.2-10.6,6.1-21.3,9.4-32.6c1.4,1.2,2,1.8,3.1,2.8 c2.6-4.9,5.5-9.5,7.7-14.4c4.1-9.3,7.9-18.7,11.9-28c1.2-2.8,1.5-4.8-0.8-7.6c-1.9-2.3-2.1-6.1-2.7-9.4c-0.1-0.7,1.4-2.2,2.5-2.5 c4.6-1.3,8.9-0.7,12.2,3.2c0.8,0.9,2,1.9,3.1,2.1c5.5,0.9,10.4,2.6,14.1,7.3c0.8,1,2.8,1.2,3.4,1.4c6.6,12.2,4,24.7,2.4,36.9 c-1.3,9.5-4.4,18.7-6.3,28.1c-3.3,15.7-6,31.5-9.5,47.2c-2.3,10.4-5.5,20.5-8.3,30.8c-4,14.1-6.7,28.3-8,42.9 c-0.6,7-3.3,13.8-5,20.8c-1.9,7.4-3.8,14.7-5.6,22.1c-2.3,9.8-4.5,19.6-6.7,29.5c-0.8,3.5-1.4,7.1-2.1,10.7 c-2.3,12.3-4.5,24.6-6.9,36.9c-1.6,8.4-3.6,16.7-5.4,25c-0.3,1.3-0.3,2.7-0.5,4.1c0.5,0.4,0.9,0.7,1.4,1.1 c5.4-4.1,11.5-7.6,16.2-12.5c7.9-8.4,15-17.6,22.2-26.6c4.7-5.8,9.2-11.8,13.2-18.1c1.9-3,2.3-6.8,3.3-10.3 c4.4-15.8,8.7-31.6,13.3-47.3c6.7-23,13.1-46.1,20.6-68.9c5.2-15.9,12-31.3,18.4-46.8c4.2-10.3,8.6-20.6,13.8-30.5 c6.5-12.5,14-24.6,20.9-36.9c0.9-1.6,1.2-3.5,1.8-5.2c-1.7-0.3-4.1-1.4-5-0.7c-1.7,1.4-2.8,3.8-3.5,5.9c-0.7,2-0.8,4.3-1.1,6.5 c-0.5-0.1-1-0.2-1.6-0.3c0.2-1.1,0.4-2.1,0.7-3.5c-0.9-0.2-1.9-0.3-3.1-0.6c3.9-6.9,7.9-12.6,16.8-12.6c2.2,0,4.4-3.2,6.5-5 c1.8,2.6,3.6,5.2,5.8,8.4c1.5-1.7,2.2-3.3,3.4-3.7c1.5-0.5,3.7-0.7,5-0.1c3,1.5,5.7,3.6,9.3,5.9c0,2.9,0,7.1,0,11.8 c1.5-0.1,2.8-0.3,3.8-0.4c-3.2,7.6-6.4,15-9.6,22.4c-0.2,0.5-0.6,0.9-0.6,1.3c-1,15.4-11.4,27.2-16.1,41.3 c-5.1,15.2-11.5,30-15.3,45.7c-4.2,17.2-9.1,34.3-13.6,51.5c-5.1,19.8-9.1,39.9-15.2,59.3c-4.2,13.4-6.5,27.1-8.8,40.8 c-0.5,2.9-0.1,5.9-0.2,8.9c-0.9,19.7-1.5,39.4-2.7,59c-0.8,12.6,2.8,24.4,6.9,35.9c3.7,10.2,8.8,20,12.7,30.1 c1.2,3.1,0.5,6.9,0.3,10.3C895.5,1158.9,893.5,1159.5,891.9,1160.3z M411.1,1101.1c0.8,0.1,1.5,0.3,2.3,0.4 c5.6-9.5,11.4-19,16.9-28.6c5.4-9.5,10.6-19.1,15.9-28.6c4.7-8.2,10.1-16,14.1-24.5c4.6-9.5,8-19.6,12-29.5 c3.9-9.6,7.6-19.2,11.6-28.7c8.1-19.3,16.6-38.4,24.5-57.7c3.4-8.4,5.8-17.2,8.5-25.8c0.3-1-0.4-2.6-1.1-3.4 c-4-4.4-8-8.6-12.2-12.8c-1.5-1.5-3.1-3-5-3.8c-3.2-1.3-6.6-2.7-10-2.9c-3.6-0.2-7.5,0.3-10.8,1.6c-6.3,2.5-12.1,6.2-18.5,8.5 c-6.8,2.5-14,4-21,5.8c-9.6,2.5-19.2,5.1-28.9,7.4c-3.3,0.8-4.6,2.1-4.6,5.7c0.3,31.1,0.5,62.2,0.7,93.3c0.1,9-0.2,17.9,0,26.9 c0.7,23.2,1.4,46.5,2.5,69.7C408.4,1083.2,410,1092.1,411.1,1101.1z M295.4,866.9c20.8-1.4,39.3-5.6,57.4-13.8 c0.3-1.2,0.9-3.1,1.1-5.1c1.1-10.4,2.1-20.7,3.2-31.1c0.2-1.5,1-4.2,1.5-4.1c4.5,0.1,3.7-3.2,4.1-5.7c0.8-5.2,1.6-10.4,2.4-15.6 c1-6.4,1.9-12.7,2.8-19.1c-0.6-0.1-1.1-0.2-1.7-0.3c-0.6,2.4-1.2,4.8-1.8,7.2c-2.4-4.1-2-8.2-0.5-12.2c1.1-2.9,3.9-6.1,3.3-8.5 c-2.1-7.9,1-15.1,1.4-22.7c0.6-9.2,2-18.3,3.1-27.5c-1.8,2.2-2.2,5.3-3.9,6.6c-6.7,4.7-9.5,11.5-12.1,18.9 c-1.9,5.6-4.8,11-7.7,16.1c-6.2,10.9-12.9,21.5-19.1,32.4c-2.1,3.7-2.9,8.1-4.7,12c-3.4,7.7-7.3,15.3-10.6,23.1 c-4.4,10.4-8.4,20.9-12.4,31.4C299.2,854.4,297.6,860.1,295.4,866.9z"/><path d="M608.1,348.3c-1.8,1.2-3.2,1.8-4.2,2.9c-6.6,7.6-13.2,15.3-19.5,23.1c-3,3.7-5,8.2-8,12c-8.6,10.9-16.5,22.7-26.5,32.3 c-13.1,12.5-27.8,23.6-42.3,34.6c-4.5,3.4-10.8,4.6-16.3,6.7c-0.4,0.2-1.1,0.2-1.5-0.1c-5.9-4.8-11.5-1.2-17.3,0.9 c0-2.2,0-4.2,0-6.1c-13.7-2.2-19.9-11.1-22.6-23.6c-0.7-3.1-2.4-6.2-4.2-8.9c-6.9-10.4-7-22-6.4-33.7c0.8-15.4,1.8-30.8,3.3-46.2 c1.7-17.5,3.9-35,6.1-52.5c0.7-5.1,2.5-10,3.5-15c0.8-3.6,1.2-7.3,1.8-11c-0.5-0.3-1-0.5-1.5-0.8c-1.7,1.6-3.7,3.1-5,5 c-6.3,8.7-14.7,15-23.6,20.4c-4.8,2.9-9.9,6.5-16.5,5.8c-1.7-0.2-4.8,3.1-5.5,5.3c-2.4,8.1-4.3,16.4-6,24.7 c-2.6,12.7-4.7,25.4-7.2,38.1c-2,10.4-4.1,20.8-6.4,31.2c-2.8,12.8-5.4,25.6-8.6,38.3c-5,19.6-10,39.3-16,58.6 c-2.7,8.9-7.3,17.3-11.8,25.6c-1.4,2.6-5.3,3.9-8,6c-3.1,2.4-6,0.8-9.2,0.1c-4-0.9-8.3-0.4-12.5-0.7c-2.8-0.2-4.5-1.6-6.5-4.1 c-3.7-4.6-8.7-8.6-13.8-11.6c-7.1-4.1-7.6-4.1-5.2-11.9c1.2-3.8,2.5-7.5,5-11.1c-0.1,2.4-0.3,4.8-0.4,7.2 c0.5,0.1,0.9,0.2,1.4,0.3c3.3-7.6,3.8-16,5.7-24.4c-0.9,0.4-1.4,0.4-1.4,0.6c-1.4,4.5-2,9.6-8.4,10.1c-0.7,0.1-1.3,1-1.9,1.6 c-5.9,5.8-11.5,12.1-18,17.1c-3.9,3-9.4,5.6-14,5.3c-7.4-0.3-15-2.5-22-5.2c-3.2-1.2-5-5.5-7.8-8.1c-2.8-2.5-5.7-5.1-9.1-6.6 c-5.8-2.7-8.7-7.5-11.5-12.6c-1.4-2.6-2.7-5.3-3.6-8.2c-1-3.4-2.2-7-2.2-10.5c-0.1-7.8,0.5-15.6,0.6-23.4c0-1.4-0.6-2.8-1.3-5.6 c-1.7,2.4-2.8,3.7-3.6,5.2c-5.3,9.1-10.1,18.4-15.8,27.2c-2.9,4.5-6.9,8.4-11,12c-3.3,2.9-6.3,5.9-9.1,9.4 c-4,4.9-9.3,9.4-15,11.9c-4.4,2-10.3,0.6-15.5,1c-3.7,0.2-7.4,0.9-11.1,1c-1.7,0.1-3.7-0.2-4.9-1.2c-5.1-4-9.8-8.4-14.8-12.6 c-3.4-2.9-7.3-5.3-10.2-8.6c-11.7-12.8-18.9-28-23.1-44.8c-3.3-13.3-8-26.3-9.1-40.1c-1.9-24.5-3.9-49-0.3-73.6 c3.1-20.5,5.5-41.1,8.9-61.6c2.3-13.6,5.6-27,8.7-40.4c2.5-10.6,5.6-21.1,8-31.7c1.1-5.1,1-10.4,1.6-15.6 c0.3-2.8,0.6-5.8,1.6-8.4c0.4-0.9,3.5-1.7,4.6-1.1c6.6,4,9.6,4.4,13.9-1.7c3.4-4.8,7.4-3.6,11.5-3.8c2.4-0.1,4.8,0,7.5,0 c0.4,1.1,0.9,2.4,1.4,3.9c2-0.6,3.9-1.3,5.8-1.6c3.8-0.5,6.8,0.4,9.2,4.1c6.7,10.4,5.2,21.1,2.5,32.1 c-3.4,14.2-6.5,28.4-9.6,42.7c-3.5,16.1-7.3,32.1-10.2,48.2c-2.1,11.7-3.1,23.7-3.8,35.6c-0.3,4.7,1.2,9.2-1.3,14 c-1,1.9,1.2,5.3,1.1,8c-0.2,12.4-1.4,24.9-0.8,37.3c1,20.1,1.9,40.4,10.3,59.4c2.3,5.3,3.3,11.1,5.2,16.6 c2.2,6.5,6.5,8.8,12.5,5.7c3.9-2,7.9-5,10.1-8.6c5.5-8.9,10.2-18.3,15.1-27.6c7-13.2,14.2-26.4,20.6-39.9 c5.6-11.9,10.1-24.2,14.9-36.4c2.9-7.2,6.7-14.3,8-21.8c2.8-17.3,7.4-34.1,10.9-51.2c2.9-14,6.2-27.9,9.7-41.8 c2.2-8.8,5-17.4,7.9-26c1.6-4.8,3.7-9.5,6-14c2.7-5.5,4.2-10.9,2.8-17.1c-0.3-1.6,1.2-4,2.5-5.3c2.7-2.7,5.7-5.1,8.7-7.4 c1.4-1.1,3.5-2.7,4.7-2.3c1.3,0.4,2,2.9,3,4.4c0.3,0.4,0.6,0.8,1.3,1.7c1-0.9,1.8-2.1,2.8-2.4c1.7-0.4,4.9-0.6,5.2,0.1 c2.3,5,4.1,3.2,6,0c0.6-1,1-2.1,1.2-2.4c3.7,2.2,6.2,3.7,8.7,5.1c3.5,1.9,5.8,4.3,6.4,8.7c1.2,8.3,3.2,16.5,4.7,24.8 c0.3,1.5-0.1,3.3-0.5,4.9c-3.1,13.3-6.3,26.6-9.5,39.9c-0.5,1.9-0.9,3.9-1.7,5.7c-7.2,16.9-8.6,35.2-13.4,52.8 c-2.8,10.5-4.6,21.4-6.3,32.2c-2.4,14.9-4.3,29.9-6.3,44.9c-2.1,15.8-4.2,31.6-6.1,47.5c-1,7.9-1.8,15.8-2.5,23.7 c-0.2,1.9,0.4,3.8,0.8,6.7c5.9-3.7,11-7.2,13.4-12.7c8.7-20,24.6-35,36.4-52.8c0.1-0.1,0.2-0.3,0.3-0.4c5.3-3.9,8.3-8.9,8.9-15.7 c0.3-3.2,1.2-6.7,5.3-8.4c1.5-0.6,2.2-4,2.6-6.2c2.3-13.1,4.4-26.2,6.6-39.4c0.4-2.6,0.8-4.9-2.2-6.9c-2.3-1.6,0.1-9.2,2.6-11.1 c1.9-1.5,4.2-3.4,4.7-5.5c4-17.5,7.5-35.1,11.6-52.6c1.3-5.6,3.7-11,5.5-16.5c0.4-1.1,0.3-2.5,0.1-3.7c-0.5-3-1.2-6-2-8.9 c-0.3-1.2-1.3-2.2-1.9-3.3c-0.8-1.5-2.3-3-2.3-4.4c0.3-6.7,1.1-13.5,1.7-20.2c0.1-0.8,0.1-1.8-0.3-2.3c-2.5-2.6-3.4-5.6-0.7-8.3 c4.3-4.3,8.6-4.7,12.8-1.9c1.5,1,2.6,2.7,4.1,3.5c1.3,0.7,3.1,0.7,4.6,0.7c1.5,0,3.4-1.2,4.6-0.6c5.7,2.7,12.9,3.3,16.1,10.1 c0.5,1,1.6,1.7,2.5,2.4c7.8,5.4,10.3,13.4,11.3,22.3c0.8,7.1,2.4,14.1,2.8,21.2c0.4,6.4-0.5,12.8-0.8,20.2 c2.2-0.7,3.8-0.8,4.7-1.6c5.9-5.6,12-11,17.4-17.1c5.6-6.3,10.1-13.4,15.7-19.8c4.1-4.7,9.2-8.7,13.6-13.1 c3.5-3.5,6.4-7.7,10.1-10.8c5.1-4.3,7.6-11.1,12.3-15c5.3-4.3,13-7.7,19.7-7.7c5.9,0,12.5,4.4,17.5,8.4 c7.3,5.8,5.4,14.6,3.9,22.3c-1.7,8.6-4.9,16.9-7.2,25.4c-0.9,3.3-1.1,6.8-1.8,10.2c-3.2,16.1-6.4,32.2-9.6,48.3 c-1.5,7.6-3.3,15.3-4.4,23c-2.3,16.3-4.4,32.6-6.1,48.9c-2,19.7-3.4,39.4-4.9,59.1c-0.2,2.6,0.2,5.3,0.8,7.9 c1.3,5.9,4.6,7.2,9.7,3.9c8.3-5.3,15.7-11.7,21.8-19.5c8.7-10.9,17.1-22,25.9-32.9c7.1-8.8,14.6-17.2,21.8-25.9 c2.5-3,4.3-6.5,6.5-9.7c8.4-11.7,17-23.3,25.3-35c10.2-14.3,20.5-28.6,30.3-43.2c3.5-5.2,5.9-11.1,8.5-16.9 c2.2-4.9,5.7-10.1,5.6-15c-0.2-5.3,3.2-8.4,4.1-12.8c0.8-3.9,2.2-7.6,3.1-11.5c0.5-2.1-0.1-4.4,0.5-6.4c1.9-6.2,4-12.3,6.2-18.4 c1.7-4.7,3.5-9.5,5.7-14c1.2-2.5,3.3-4.6,5-6.9c1.6-2.2,1.4-3.3-1.3-4.9c-1.7-1-2.7-4.2-2.8-6.4c0-1.7,1.6-3.8,3.2-4.9 c0.9-0.7,3.1,0.1,4.6,0.6c1.8,0.7,3.5,1.8,4.8,2.5c2.1-2.9,3.4-6.9,5.7-7.5c5.2-1.3,10.7-1.2,16.2-1.1c1.5,0,3.2,1.7,4.5,2.8 c4.5,4.1,8.9,8.3,13.4,12.5c3.6,3.4,3.8,7.9,2.9,12.1c-2.7,12.5-5.4,25-8.9,37.2c-4.5,15.9-9.8,31.7-14.6,47.5 c-4.3,14.1-8.5,28.2-12.4,42.5c-3.3,12.2-6.1,24.5-9.2,36.7c-4.6,18-9.3,36-14,53.9c-2.9,10.9-6.3,21.6-8.8,32.6 c-3.3,14.7-5.9,29.6-8.6,44.5c-3.1,16.7-11.5,20.6-25.2,22c-4.9,0.5-10.3-2.5-15.2-4.6c-4.5-1.9-8.7-4.1-10.3-9.8 c-0.6-2.3-4.5-3.6-6.4-5.7c-1.1-1.2-1.8-3.5-1.5-5.1c3.2-14.6,6.7-29.1,9.9-43.7c0.8-3.5,0.6-7.2,0.9-10.9 c0.4-4.1,0.7-8.3,1.6-12.3c2.3-10,4.9-20,7.3-30C608.6,350.5,608.3,349.9,608.1,348.3z M261.1,165.1c0.1,0.8,0.3,1.6,0.4,2.3 c2.5,0.1,4.9,0.1,7.4,0.2c-0.3-2.2-0.7-4.5-1.2-8.2C264.6,162,262.8,163.5,261.1,165.1z"/><path d="M1108.9,1039.6c-2.5-1.1-4.5-2-6.8-3c-2.2,3.4-4.6,5.5-8.8,3.5c-0.8-0.4-2.3,0.1-3.2,0.6c-4.2,2.4-8.1,0.5-10.7-2 c-1.4-1.3-0.2-5.3-0.2-9.7c4,4.1,6.3,3,7.7-0.1c3.2-6.9,6.6-13.7,9-20.8c2.2-6.4-0.3-9.2-6.8-10.5c-1.4-0.3-3.4-2.6-3.5-4.1 c-1.7-20.9-2.9-41.8-4.5-62.7c-1.6-20.7-3.5-41.3-5.1-62c-1-12.4-1.7-24.9-2.7-37.3c-1.5-17.2-3.1-34.3-4.9-51.4 c-1-9.6-2.9-19-3.9-28.6c-0.9-8.3-1.1-16.6-1.7-24.9c-0.2-2.8-0.5-5.6-1.6-8.6c-0.5,0.9-1,1.8-1.4,2.7 c-4.4,13.2-9,26.4-13.2,39.7c-1.8,5.8-2.3,12-4.3,17.7c-5,14.4-10.5,28.7-15.6,43.1c-3.6,10.2-6.8,20.5-10.1,30.7 c-3.8,11.5-7.5,23-11.2,34.6c-0.7,2.3-0.9,4.9-1.6,7.2c-0.8,2.8-2.1,5.4-2.7,8.2c-1.2,5-1.7,10.1-3,15c-2.5,9.3-5.5,18.5-8,27.8 c-1.2,4.3-1.7,8.8-2.7,13.1c-2.4,11.5-5,23-7.4,34.5c-3.7,18.4-7.2,36.8-10.9,55.2c-0.3,1.6-1.4,3.1-2.1,4.7 c-0.5,1.2-1.2,2.3-1.4,3.6c-0.9,5.4-1.9,10.7-2.3,16.1c-0.5,6.5-0.7,13-0.8,19.5c-0.1,4.9-4.8,11.4-9.6,11.3 c-5.8-0.1-11.6-1.9-17.5-2.3c-9.4-0.6-12.6-8-16.9-14.4c-0.9-1.3-2.3-2.5-3.7-3.3c-5.9-3.3-7-6.2-6-13.2 c2.1-14.7,3.6-29.5,5.9-44.2c1.8-11.3,4.3-22.5,6.6-33.8c2.2-10.7,4.9-21.3,7-32c2.4-12.4,3.9-25,6.6-37.3 c1.7-7.9,4.9-15.5,7.2-23.2c2.4-7.9,4.3-16,6.8-23.9c2.5-8.2,5.4-16.2,8-24.3c2.5-7.4,4.8-14.9,7.3-22.3 c6-17.8,12.1-35.7,18-53.5c4.7-14.1,9.1-28.3,13.7-42.4c1.2-3.6,3.1-7,4.6-10.5c7.1-16.3,11-33.6,15.4-50.7 c1.8-6.9,2.7-14,4.4-20.9c1.2-4.8,3-9.4,4.6-14.1c2.8-7.9,6-15.7,8.7-23.6c1.2-3.4,1.4-7.2,2.6-10.6c0.9-2.6,2.9-4.7,3.7-7.3 c0.8-2.6,0.6-5.5,0.8-8.2c2.3-1.4,4.7-2.9,7.2-4.3c0.7-0.4,1.6-0.7,2.3-0.7c7.8,0.4,15.7,0.7,23.5,1.5c3,0.3,7.2,1,8.6,3 c3.2,4.6,6.5,9.9,7.3,15.3c3.2,22.9,5.3,45.9,8.2,68.8c2.6,20.6,6,41,8.7,61.6c2.1,16,3.5,32,5.4,48c2.1,18.2,4.4,36.3,6.5,54.5 c2.4,21.2,4.6,42.4,6.8,63.7c1,9.3,1.7,18.7,2.5,28c0.5,0.1,0.9,0.3,1.4,0.4c2.8-6.2,5.8-12.4,8.5-18.7 c6.8-15.9,13.5-31.8,20.2-47.7c8.3-19.5,16.5-39,24.9-58.4c7.2-16.9,14.6-33.8,21.8-50.8c2.7-6.3,5-12.7,7.8-18.9 c7.7-17.4,15.7-34.6,23.4-52c4.6-10.3,8.8-20.8,13.4-31.2c5.7-12.8,11.5-25.6,17.5-38.3c8.6-18,17.4-36,26.4-53.8 c5.1-10.2,10.9-20.1,16.3-30.1c0.3-0.6,0.9-1.4,0.7-1.8c-2.7-5.8,2.6-7.7,5.4-10.6c2.9-2.9,4.6-7.3,10.1-7 c1.8,0.1,3.7-1.9,5.6-2.7c6.2-2.6,12.4-0.3,18.4,0.8c2.2,0.4,4.9,1.7,3.9,5.2c-0.1,0.3,0,0.8,0.2,1c8.5,7.9,1.2,14.8-2,21.2 c-12.5,24.7-26.1,49-38.6,73.7c-5.6,11.1-9.6,22.9-14.8,34.3c-6.4,14-13.5,27.7-19.8,41.8c-8.8,19.7-17,39.6-25.7,59.3 c-7.2,16.4-15.1,32.5-22.1,49.1c-8.3,19.7-15.8,39.8-23.9,59.6c-2.9,7.1-6.7,13.7-9.8,20.7c-4,9.3-7.7,18.7-11.5,28.1 c-4.1,10-8.1,20-12.1,30.1c-7,17.4-13.8,34.8-21.2,52c-3.1,7.1-7.4,13.6-11.2,20.4c-1.8,3.1-3.9,6.1-5.4,9.4 c-5,11.6-13.1,20.2-24,26.2C1110.3,1038,1109.7,1038.9,1108.9,1039.6z M1040.9,609.8c0.2,0.1,0.5,0.3,0.7,0.4 c1.3-3.4,2.8-6.8,3.8-10.3c0.3-1.2-0.7-2.7-1.1-4.1c-1.2,1.1-3.1,2.2-3.3,3.4C1040.6,602.8,1040.9,606.3,1040.9,609.8z"/><path d="M58.3,571.9c4.6-1.6,9.2-3.2,13.8-4.8c0.9-0.3,1.9-0.7,2.6-1.4c6.7-5.8,13.8-5.7,21.4-2.1c9,4.2,13.8,10.7,14.1,20.8 c0.2,8.4,1.1,16.8,1.8,25.7c4.4-1.7,9.6-2.7,13.6-5.5c8.7-6.3,18.9-7.8,28.9-10.1c5.5-1.3,11.2-1.9,16.8-1.9 c5.5,0,11,1.2,16.5,1.8c3,0.3,6,0.5,8.9,0.6c7,0.2,14,0.6,19.7,5.6c1.7,1.5,4,2.9,6.2,3.1c12,1,19,10.1,26.8,17.2 c5,4.6,7.2,12.1,6.1,19.4c-2.6,17.7-7.7,34.6-16.4,50.4c-5.6,10.2-10.2,20.9-15.8,31c-8.9,16.3-18,32.5-27.7,48.4 c-3.8,6.2-9.5,11.1-14.1,16.7c-9.2,11.1-18.7,22-27.2,33.6c-8.4,11.5-18.3,21.5-28.8,30.9c-7.9,7.1-15.5,14.5-23.7,21.2 c-3.6,3-3.5,6.2-1.6,9.2c6.9,10.9,14.3,21.6,21.5,32.4c4.3,6.5,8.3,13.2,12.9,19.4c3.6,4.8,7.9,9,12.1,13.4 c7.2,7.5,16.2,12.3,25.5,16.8c6.9,3.4,6.5,8.3,3.8,15.7c-2.5,6.8-8.3,6.6-12.7,9.5c-0.8,0.5-2.4,0.5-3.3,0 c-9.6-4.4-19.6-8.3-28.7-13.7c-10.6-6.2-21.9-11.5-30.6-20.5c-7-7.3-14-14.4-18.7-23.6c-3.1-6.2-7.9-11.5-11.9-17.3 c-0.6,0.2-1.2,0.5-1.8,0.7c-0.7,6.6-1.3,13.3-2,19.9c-0.6,6.2-1.2,12.3-1.6,18.5c-0.4,5.8-0.6,11.6-1,17.4 c-0.8,13.2-1.7,26.4-2.5,39.6c-0.6,10.2-1.4,20.4-1.5,30.7c-0.1,8.7,0.3,17.5,0.9,26.2c0.8,10.5-2.3,15.2-12.7,15.9 c-6.5,0.5-13.3,1.1-19.4-2.6c-0.6-0.3-1.3-1.1-1.6-1c-5.7,2.9-8.2-0.5-9.9-6.9c-0.6,3-0.8,4.2-1,5.3c-0.9-0.9-2.3-1.8-2.5-2.8 c-1.3-6.2-2.3-12.5-4.3-18.7c0,2.1,0.1,4.3-0.1,6.4c-0.1,0.9-0.8,1.8-1.2,2.8c-0.9-0.5-2-0.9-2.7-1.7c-1.2-1.2-2.4-2.5-3.2-4 c-0.7-1.2-1.5-3.1-1-4c2.7-4.8,2.2-9.1,0-14.2c-1.4-3.3-0.9-7.5-0.9-11.3c0-19.1-0.7-38.2,0.5-57.2c1.1-19.3,4.2-38.5,6.3-57.7 c1.4-12.9,2.9-25.8,3.9-38.7c0.2-2.6-1.1-5.4-2-8c-0.8-2.1-2-4.1-3-6.1c7.5-2.5,8.9-4.9,9.8-12.4c1-8,3-15.9,4.1-24 c3.1-21,5.7-42.1,8.9-63.1c1.4-9.5,3.7-18.9,5.5-28.4c0.3-1.8,0.7-3.6,0.8-5.4c0.6-8.1,0.6-8.1-6.9-11.9 c-0.7-0.4-1.7-0.8-1.9-1.5c-1.2-2.9-2.9-4.5-6.1-5.6c-2.3-0.8-5.7-3.3-1-6.5c2.5-1.7,1.4-3.2-1.2-4.7c-4.4-2.4-8.5-5.3-12.5-8.4 c-0.9-0.7-1.4-3.8-0.7-4.6c2.6-3,5.5-5.8,8.7-8.1c2.3-1.7,5.2-2.6,7.8-3.9c1.6-0.8,3.5-1.3,4.7-2.6c4.7-4.6,8.5-10.5,13.8-14 c8.2-5.4,8.2-13.3,9-21.3c1.3-12.2,2.4-24.5,4.2-36.6c1-6.1,3.6-12,5.3-18c0.7-2.6,0.7-5.4,1.1-8C59,572.8,58.6,572.4,58.3,571.9 z M86.9,778.2c0.5,0.2,0.9,0.5,1.4,0.7c1.6-1.5,3.5-2.9,4.8-4.7c5.7-7.5,11.2-15.1,16.7-22.7c8-11.1,16.7-22,23.9-33.6 c9.2-14.9,17.4-30.5,25.8-46c2.9-5.4,5.8-11,5.2-18.2c-2.4,0.7-4.5,0.9-6.1,1.8c-6.5,3.4-12.8,7-19.2,10.6c-4,2.3-8,4.6-11.9,7.2 c-5.6,3.7-10.7,8.6-16.8,11.2c-7.8,3.2-10.8,8.7-11.9,16.2c-2.8,19.1-5.7,38.1-8.6,57.2C89.1,764.5,88,771.4,86.9,778.2z M128.6,737.6c0.4,0.3,0.8,0.6,1.1,1c4.6-4.1,10.6-7.5,13.6-12.6c12.4-21.4,23.9-43.3,35.6-65c1-1.8,1.1-4,1.9-7.2 C158.5,679.9,146.8,710.6,128.6,737.6z M8,1043c0.7,0,1.4,0.1,2.1,0.1c0.1-1.3,0.5-2.6,0.4-3.9c-0.3-10-0.8-19.9-0.8-29.9 c0-12.6,0.1-25.2,0.9-37.8c0.4-6.7,2.5-13.4,3.3-20.1c1.3-11.7,2.5-23.5,3.2-35.2c0.5-7.8,0.1-15.7,0.1-23.5 c-0.8,1.1-1.2,2.4-1.3,3.8c-1.9,22-3.7,43.9-5.8,65.9c-1,10.5-3.1,21-3.3,31.5C6.6,1010.2,7.6,1026.6,8,1043z M86.8,791.9 c5.9-1.9,31.1-35.5,30.6-40.3C103.6,762.6,97.6,779.1,86.8,791.9z M44,727c-0.3,0-0.6-0.1-0.8-0.1c-0.4,4-0.8,8-1.1,12 c0.7,0,1.3,0.1,2,0.1C44,735,44,731,44,727z"/><path d="M697,86.6c-2.6-2.2-5.2-4.5-8-6.9c4.3-3,4.5-6.6,0.8-11.1c-1.1-1.3-0.6-5,0.4-6.9c3.7-7.1,6.2-14.6,7.3-22.5 c0.4-2.5,2.6-4.8,4-7.1c0.7-1.1,1.9-1.9,2.2-3.1c2.1-8.2,6.6-15.2,13.1-19.9c5.9-4.2,13.4-6.3,20.3-9c0.9-0.4,3.3,0.4,3.5,1.1 c1.1,3.7,4.5,3.6,7,4.5c6.7,2.5,10.3,6.7,9.6,14.3c-0.2,1.9,1.7,4,2.3,5.5c0,3.9,0.1,7.7,0,11.4c0,1-0.4,2.1-1,2.9 c-6.7,9.4-13.6,18.7-20,28.2c-2.8,4.1-4.1,9.2-7.1,13c-1.9,2.3-5.9,2.9-9,4.1c-3.4,1.4-6.8,2.7-10,3.9c-4-9.3-10.4-1.1-15.8-1 C696.7,87.6,696.8,87.1,697,86.6z"/><path d="M359.3,1119.8c1.7,4.4,3.4,8.9,5.1,13.3c-0.7,0.2-1.3,0.5-2,0.7c-1.4-4.5-2.9-8.9-4.3-13.4 C358.5,1120.2,358.9,1120,359.3,1119.8z"/></g></g><g><g><path id="right_eye" transform="translate(&#10;    0,&#10;    0)" d="M1235.5,296.7c-0.8-3.4-2.3-6.6-4.1-9.5c-2.2-3.4-4.9-6.3-7.9-8.7c-0.7-0.5-1.5-1.1-2.3-1.4c-0.9-0.3-1.7-0.4-2.7-0.2 c-1.6,0.4-2.9,1.8-4,3.3c0,0,0,0,0,0c0,0,0,0,0,0c0,0,0,0,0,0c0.5-0.6,0.8-1.2,1.1-1.9c0.7-1.8,0.5-3.7-0.2-5.3 c-0.8-1.5-1.9-3-3.3-4.1c-2.9-2.7-6.7-4.2-10.6-4.5c-3.9-0.4-7.9,0.2-11.6,1.5c-3.3,1.2-5.6,3.7-8.1,5.7 c-2.7,2.2-5.6,4.1-8.2,6.3c-1.2,0.9-2.2,2-3.4,3c-1,1.1-2.1,2.2-3,3.4c-1.9,2.4-3.4,5.2-4.1,8.2c-0.7,3.1-0.7,6.3-0.1,9.4 c0.4,3.1,1.3,6,1.9,8.9c0.6,2.9,1.2,5.8,2.1,8.9c1,2.9,2.2,6,4.4,8.5c0.9,1.3,2.1,2.2,3.3,3.3c1.2,0.9,2.5,1.8,3.9,2.6 c4.1,2.4,8.6,3.9,13.3,4.4c4.6,0.5,9.3-0.1,13.6-1.4c9-2.8,17-8.3,22.8-15.7c3.1-4,6.6-8.4,7.6-13.9 C1236.6,303.7,1236.3,300.1,1235.5,296.7z"/><path d="M1356.6,328.6c-0.2-1.6-0.6-3.1-1.5-3.6c0,0,0,0,0,0s0,0,0,0c0.1-0.1,0.2-0.2,0.2-0.3c0.1-0.2,0.2-0.3,0.3-0.5 c0.6-0.9,1.1-1.9,1-3.2c-0.3-2.3-2.5-5.3-5.2-7.9c-8.1-7.8-17.3-14.7-26.5-21.8c-9.1-7-18.3-14.2-25.8-22.4 c-1.2-1.2-2.2-2.5-3.3-3.8c-1.1-1.3-2.2-2.6-3.1-3.9c-1-1.3-2-2.6-2.9-3.9l-1.2-1.9l-0.6-0.9c-0.2-0.3-0.4-0.6-0.4-0.7l0-0.1 c0,0,0-0.1,0.1,0.1c0,0,0.1,0.1,0.1,0.1l-0.1-0.1l-0.4-0.9l-0.9-1.8c-0.6-1.2-1.2-2.4-1.8-3.6c-1.2-2-2.5-4.1-3.8-6.1 c4.4-7.2,5.7-15.4,6.2-23.1c0.5-8.2,0.1-16.2,0.4-24c0.5-11.3,1.4-22.8-1.6-34c-1.8-6.7-4.9-12.9-6.8-19.5 c-1.5-5-2.2-10.1-3.3-15.2c-2.7-12.5-7.3-24.5-14.5-35.4c-3.2-4.9-7.4-10-10.7-14.8c-3.6-5.4-7.3-10.9-12.7-15.5 c-2.6-2.2-5.5-4.2-8.6-6c-3.1-1.7-6.4-3.2-9.9-4.4c-3.5-1.1-7.1-1.9-10.8-2.3c-3.6-0.5-7.5-0.4-11-0.2c-1.8,0.1-3.6,0.2-5.4,0.3 c-1.8,0.2-3.6,0.5-5.4,1c-1.8,0.3-3.4,1.1-5.1,1.8c-0.8,0.4-1.7,0.7-2.5,1.1l-2.3,1.3c-8.2,4.5-15.3,11.6-21.7,17.6 c-5.7,5.4-11.5,10.9-16.1,17.3c-5.9,8.5-9.6,15.8-12.8,23.2c-3.1,7.4-5.7,14.8-8.3,23.9c-1.1,3.7-1.9,7.5-2.4,11.3 c-0.2,1.2-0.4,2.6-0.7,4c-2-0.1-4-0.2-6.1-0.3c-1.9,0-3.9,0-5.8,0c-3.4,0-6.7,0.1-9.8-0.2c-2.6-0.2-5.3-0.6-8.2-1.1 c-1.8-0.3-3.7-0.6-5.5-0.8c-24.7-3.1-49.6,2.6-71.6,7.6c-8.1,1.8-16.5,3.8-24.7,6.9c-5,1.9-9.8,4.5-14.4,7.2 c-0.3-1.2-0.7-2.4-1.1-3.5c-4-12-12-22.2-20.8-31.4c-4-4.1-8.6-6.8-13-10.4c-4.8-3.9-9.4-8.1-14.1-12.1c-2-1.8-4.2-3.4-6.2-5.1 l-3.3-2.4c-1.1-0.8-2.2-1.6-3.4-2.3c-4.6-3-9.7-5.4-15.1-7c-5.6-1.6-11.5-2.1-17.2-2c-1.4,0-2.9,0.2-4.3,0.3 c-1.4,0.1-2.9,0.2-4.3,0.4l-4.2,0.5c-1.4,0.2-3,0.5-4.5,0.8c-11.9,2.4-23.1,9.2-30.2,18.6c-3.4,4.5-5.9,9.5-8,14.5 c-6.4,15.1-8.6,30.6-9.5,46c-0.9,15.9-1.2,32.1-1,48c0.1,8.6-0.7,17,0.6,25.7c1.6,11.2,5.3,22.1,10.3,32.5 c3,6.1,6.4,12.2,11.1,17.8c1.3,1.6,2.9,3.2,4.6,4.4c0,0.1,0,0.1-0.1,0.2c-0.5,1.9-1.1,4-1.4,5.9c-0.2,1.9-0.2,3.8,0.2,5.2 l-0.1,0.1c0,1.4-2.6,5.6-4,7.2c-1.5,1.6-2.8,3.6-4.3,5.7c-7.8,11.2-15.8,22.8-23.9,34.4c-4.1,5.9-8.3,11.7-12.6,17.5 c-2.1,2.9-4.3,5.7-6.5,8.6l-1.9,2.4l-2.9,3.6c-2,2.4-4,4.8-5.9,7.3c0.8,1.3,1.9,2.7,2.9,4c1,1.3,1.9,2.7,3,4c1,1.3,2,2.6,3.1,4 l1.2,1.5l0.9,1.2c7.5,9.4,15.3,18.6,23.8,27.2c8.5,8.6,17.6,16.7,27.7,23.6c12.2,8.5,25,14.9,37.9,22.1c9.6,5.5,19.2,11,29,16.2 c12.1,6.2,24.6,11.4,37.5,15.6c12.9,4,26,7.3,39.4,9.2c3,0.4,6.1,0.9,9.2,1.3c3.2,0.3,6.3,0.6,9.5,0.9c1.6,0.2,3.2,0.3,4.8,0.5 c1.6,0.2,3.2,0.2,4.7,0.3c3.1,0.2,6.2,0.5,9.2,0.8c3.3,0.4,6.7,0.6,10,0.9c3.3,0.3,6.6,0.5,9.9,0.7c6.6,0.2,13.2,0.4,20.1,0.1 c3.3-0.2,6.6-0.5,9.9-0.7c3.3-0.3,6.6-0.4,9.9-0.9l9.9-1.3c3.3-0.4,6.6-0.8,9.8-1.4c6.5-1.1,13-2.4,19.5-3.5 c6.5-1.4,12.9-2.6,19.4-3.8c3.4-0.7,6.7-1.4,10.1-2.1c3.4-0.7,6.8-1.4,10.1-2.5c3.3-1,6.5-2.1,9.8-3.2c1.6-0.5,3.2-1.2,4.8-1.9 l4.7-2c16.6-6.9,33.6-16.6,49.1-25.5c13.8-8,27.8-16.2,40.5-26.1c16.8-13.1,29.1-25.2,40.3-37.8c11.2-12.6,21.4-25.8,32.3-42.6 c4.5-6.9,8.6-14,12.2-21.3c3.1-6.3,7.6-14.6,8.7-20.5C1357,333.7,1356.9,331,1356.6,328.6z M978.9,372.7c-2,3-4.6,4.9-6.8,6.2 c-2.4,1.2-4.6,2.9-7.1,4.1c-1.4,0.7-2.6,1.6-4,2.1c-1.4,0.6-2.7,1.3-4,2c-2.8,1.1-5.4,2.5-8.2,3.4c-5.6,2-11.4,3.8-17.5,4.4 c-5.4,0.5-10.4,1.5-16,0.7c-6-0.8-12-2.9-17.1-6.2l-1.7-1c-0.5-0.4-1-0.8-1.6-1.2l-3.1-2.4c-1-0.8-1.9-1.8-2.9-2.6 c-0.9-0.9-1.9-1.7-2.7-2.7c-1.7-1.9-3.4-3.8-4.9-5.9c-0.7-1-1.6-2-2.3-3.1c-0.7-1.1-1.4-2.1-2.1-3.2c-2.7-4.4-5.4-9-7.1-14 c-1-2.4-1.5-5-2.2-7.6c-0.3-1.3-0.4-2.6-0.5-3.9c-0.2-1.3-0.3-2.7-0.2-4c0.1-1.3,0.1-2.6,0.2-4c0.2-1.3,0.4-2.6,0.7-3.9l0.4-1.9 l0.6-1.9l1.2-3.7l1.5-3.5l0.8-1.8l0.9-1.7l1.8-3.4c0.7-1.1,1.4-2.1,2.1-3.2l0.9-1.6c0.3-0.5,0.7-1,1.1-1.5l2.1-3 c0.7-1,1.6-1.9,2.3-2.8c0.8-0.9,1.5-1.9,2.4-2.8c10.3-10.6,24.5-17.4,39.7-18.6c7.9-0.6,16,0.5,23.5,3.3 c7.5,2.8,14.3,7.3,19.7,12.8c5.9,6,9.4,13.4,12.3,20.8c0.4,1.2,0.9,2.4,1.4,3.6l1.1,3.7c0.4,1.2,0.7,2.5,1,3.8 c0.2,1.3,0.6,2.5,0.8,3.8c0.9,5.1,1.1,10.4,0.8,15.6c-0.6,6.2-2.2,12.4-4.7,18.2c-0.6,1.9-0.1,1.5-0.6,2.9 C979.9,371.7,978.9,372.7,978.9,372.7z M1182.2,488c-19.8,9.1-39.8,17.8-61.4,22.5c-2.7,0.6-5.3,1.1-8,1.6 c-2.7,0.5-5.4,0.8-8.1,1.1c-5.4,0.7-10.7,1.4-16.1,1.7c-5.4,0.2-10.7,0.5-16.1,0.7c-5.4,0.2-10.8,0.1-16.2,0.3 c-10.3,0-20.7,0.2-31-0.4c-15.6-0.9-31.1-2.4-46.3-5.3c-12.4-2.3-24.8-5.2-36.9-8.8c2-1.6,3.9-3.4,5.8-5.2 c11-10.5,19.4-23.6,27.3-36.8c3.6-5.9,5.5-11.9,8.8-18c1.7-3.3,3.6-6.5,5.6-9.7c2-3.2,4-6.4,6.1-9.5c7-10.7,14.6-21.3,19.7-33.7 c0.6-1.6,1.2-3.3,1.8-4.9l0.4-1.2l0.1-0.3c0,0,0-0.1,0,0c0,0.1-0.1,0.3-0.1,0.2l0,0c0,0,0-0.1,0.1-0.3l0.9-2.4 c1.3-3.3,2.4-6.6,3.2-10c1.8-6.8,2.9-13.6,3.7-20.5c0.9-6.9,1.5-13.7,1.6-20.6c0-3.5-0.3-6.9-0.6-10.4c-0.2-3.5-1.1-6.9-1.9-10.4 c-0.7-3.3-2.1-6.5-3.3-9.7l-1-2.4c-0.3-0.8-0.8-1.5-1.2-2.3l-2.4-4.5c-5.1-9-11.4-17.2-19.1-24c-7.6-6.8-16.2-12.3-25.4-16.6 c-19.2-8.5-41-12-61.9-9.2c-11.2,1.4-22.5,3.5-33,9c-6.6,3.7-12.8,8.1-18.1,13.5c-0.9,0.8-1.7,1.7-2.4,2.5 c-15.8-30.3-16.2-112.5,18.6-117.1c30.8-4.1,53.7,29.9,62.2,44.9c1.1,2.1,2.2,3.3,3.1,5.1c1.5,2.9,5,4,8,4c0,0,2.8-1.4,4-2 c6-3.1,8.6-4.9,14.2-8.6c7.6-5,14.7-9.8,22.2-12.6c7.1-2.7,14.9-4.5,22.5-6.2c21.7-4.9,44.1-10,65.8-7.3c1.7,0.2,3.4,0.5,5.1,0.7 c3,0.5,6.1,0.9,9.4,1.2c3.9,0.3,7.6,0.3,11.3,0.2c1.8,0,3.6,0,5.4,0c12.6,0.2,22.4,1.9,34.2,6.5c4.3,1.7,5.8,0.4,7.5-3.9 c1.6-4.2,1.5-4.1,1.7-10.7c5.6-18.4,19.1-50.3,46.9-54c35.4-4.7,56.5,78,47.9,110.2c-1.9-0.9-3.9-1.8-5.9-2.7 c-7.6-3.4-15.3-6.9-23.5-9c-20.1-5.4-41.9-3.1-60.4,6.3c-8.2,4.3-16.7,10.2-23.6,16c-1,0.8-2.1,1.5-3,2.4 c-0.9,0.8-1.9,1.7-2.8,2.5c-1.8,1.7-3.8,3.3-5.4,5.2c-1.7,1.8-3.4,3.7-5,5.6c-1.5,2-3,4.1-4.4,6.3c-5.2,8.6-9.2,18-11.7,27.6 c-2.4,9.7-3.7,19.6-4.3,29.6c-0.1,2.6-0.1,5.2-0.1,7.9c0,1.3,0,2.6,0.1,4c0.1,1.3,0.2,2.6,0.4,4c0.7,5.2,2.3,10.3,4.1,15.1 c2.5,6.4,5.9,12.7,9.8,18.6c2,2.9,4.1,5.8,6.3,8.5c1.1,1.4,2.2,2.7,3.3,4l1.6,1.9c0,0,0.1,0.1,0.1,0.1l0.1,0.1l0.7,1 c6.7,9.8,13.8,18.8,21.7,27.2c10.4,10.9,19.4,18.9,28.3,26.6c9,7.7,18,14.9,29.1,23.5c4.5,3.5,9.2,6.9,13.9,10 c3.6,2.4,8.1,5.9,11.8,7.6C1213.3,473.2,1197.8,480.7,1182.2,488z M1122.5,368.3c0,0,0.1,0.1,0.1,0.1l0,0.1 C1122.7,368.5,1122.5,368.4,1122.5,368.3z M1256.4,300.5c-0.3,5.4-1.5,10.7-3.2,15.8c-0.4,1.3-1,2.5-1.4,3.7l-0.7,1.9l-0.9,1.8 c-0.6,1.2-1,2.4-1.6,3.6c-0.6,1.2-1.2,2.4-1.8,3.6c-3,5.7-6.1,11.6-11.2,16.1c-2,1.6-3.9,3.2-6.2,4.3c-1.1,0.6-2.2,1.2-3.3,1.7 l-3.5,1.4c-5.7,2.1-11.5,3.6-17.4,4.4c-5.9,0.7-11.9,0.7-17.9,0.2c-5.4-0.4-11.5-2-16.4-4.5c-1.3-0.8-2.6-1.6-3.9-2.3 c-1.2-0.9-2.4-1.8-3.6-2.7c-1.2-0.8-2.3-1.9-3.4-2.9c-1.1-1-2.4-1.9-3.4-3l-3.2-3.1l-2.9-3.4c-1-1.1-1.8-2.4-2.7-3.6 c-0.9-1.2-1.7-2.5-2.4-3.8c-3.1-5.2-5-11.1-5.5-17c-0.1-1.6-0.3-3.1-0.2-4.6c0.1-1.6-0.1-3.1,0.1-4.6c0.1-1.5,0.1-3,0.1-4.6 c0.1-1.5,0.2-3,0.3-4.6c0.1-2,0.5-4,0.8-6.1c0.4-2,0.9-4.1,1.4-6.2c0.7-2,1.4-4,2.2-5.9c1-1.9,1.9-3.8,3-5.4 c4-6.1,9.8-10.9,15.7-15c0.9-0.8,2-1.3,2.9-1.9c1-0.6,1.9-1.2,2.8-1.7c2-0.9,3.8-1.9,5.7-2.7c3.7-1.5,7.3-2.7,11-3.5 c7.3-1.6,14.9-2.2,23.9-0.6l2.8,0.5l2.7,0.7l2.7,0.6l2.7,0.9c0.8,0.3,1.6,0.5,2.5,0.8c0.9,0.3,1.7,0.8,2.5,1.1 c1.7,0.8,3.4,1.3,4.8,1.6c0,0,4.6,2.7,8.6,8c4.6,6,9.1,12,12.5,18.9C1254.6,285.3,1256.7,293,1256.4,300.5z"/><path d="M950.1,354.6"/><path id="left_eye" transform="translate(&#10;    0,&#10;    0)" d="M958.2,355.8c3.5-3.1,5.2-7.9,5.6-12.6c0.4-4.8-0.3-9.3-0.6-14c-0.3-3.4-0.7-6.9-1.9-10.3c-1.3-3.3-3.2-6.6-6.1-8.8 c-3.6-2.7-7.9-3.6-11.6-5.2c-2.9-1.1-5.5-2.8-8.6-3.9c-3.7-1.3-7.7-1.8-11.7-1.4c-3.9,0.5-7.7,1.9-11,4.1c-3,1.9-5.6,4.9-8.2,6.9 c-3,2.3-5.8,4.7-7.7,8.2c-1.8,3.3-2.7,7.1-3.3,10.7c-0.6,3.7-0.8,7.3-1.2,11c-0.3,2-0.4,4-0.2,6c0.2,1,0.5,1.9,0.8,2.9 c0.4,0.9,0.9,1.8,1.3,2.7c0.6,1.1,1.4,2.2,2.2,3.3c0.8,1.1,1.7,2,2.6,3c0.9,0.9,1.9,1.9,2.8,2.8c1,0.9,1.8,1.8,2.7,2.6 c3,3.1,6.3,6.6,10.7,8.5c5.6,2.5,10.8,3,15.6,2.5c4.8-0.5,9.5-2,14.4-4.8c1-0.6,2-1.2,2.9-2c0.4-0.4,0.9-0.8,1.3-1.1 c0.4-0.4,0.8-0.9,1.1-1.3c1.3-1.5,5.7-5.3,6.9-7.1L958.2,355.8z"/><g><path fill="none" stroke="#000000" stroke-width="2" stroke-linecap="round" stroke-linejoin="round" stroke-miterlimit="10" d=" M1110.1,411.1"/></g><g><path fill="none" stroke="#000000" stroke-width="3" stroke-linecap="round" stroke-linejoin="round" stroke-miterlimit="10" d=" M1148.9,171.1"/></g><g><path fill="none" stroke="#000000" stroke-width="2" stroke-linecap="round" stroke-linejoin="round" stroke-miterlimit="10" d=" M1072.4,396.4"/></g><path d="M1095.9,385.7c1.1-1.6,2.4-4.1,4-7c0.6-0.7,1.8-2.3,2.3-3c0.5-0.7,1-1.4,1.5-2c1.6-2,2.7-5.1,2.6-8.1 c0-0.8-0.2-1.5-0.3-2.2c-0.2-0.7-0.5-1.4-0.8-2.1c-0.3-0.7-0.8-1.3-1.2-1.9c-0.4-0.6-1-1-1.6-1.6c-0.3-0.2-0.6-0.5-0.9-0.7 l-1.1-0.5c-0.7-0.4-1.4-0.7-2.2-1c-1.6-0.4-3.3-0.7-4.9-1.1l-5.1-1.2c0,0-7.5-1.6-10.5-1.6c-2.4,0-5.8,0.1-8.1,0.1 c-0.5,0-1,0-1.5,0c-0.3,0-0.5,0-0.8,0l0,0l0,0l-0.2,0l-0.2,0c-0.2,0-0.4,0-0.6,0.1l0,0l-1.1,0.2c-1.6,0.2-3.2,0.5-4.8,0.9 c-1.6,0.4-3.2,0.9-4.8,1.3c-1.6,0.4-3.2,1.1-4.8,1.7c-1.2,0.4-2.4,0.8-3.6,1.4l-3.3,1.8c-2.4,1.1-4.1,2.7-6,4.1l-2.3,2.5 c-0.7,0.9-1.2,1.8-1.8,2.8c-0.9,2-1.5,4.4-1.4,6.7c0.1,2.3,0.8,4.5,1.7,6.4c1,1.8,2,4.2,4.3,6.2c1.1,1,2.3,2,3.5,3.1 c0.6,0.5,1.3,1,1.9,1.5l0.9,0.7l0.5,0.4c3.5,2.6,7.8,4.1,12,5.5l6.6,2.2l2.2,16.9c-1.3-0.2-2.6-0.3-4.1-0.4 c-5.4-0.4-10.6-2.2-15.2-5.1c-3.9-2.5-9.1-1.4-11.6,2.4c-2.5,3.9-1.4,9.1,2.4,11.6c6.9,4.5,14.9,7.2,23.1,7.8 c2.5,0.2,4.4,0.5,6.7,0.9c2.1,0.4,4.4,0.7,7.2,1c0.4,0,0.7,0.1,1.1,0.1c2.4,0,4.6-0.7,6.6-1.3c0.5-0.2,1.3-0.4,1.6-0.5 c2.7-0.3,5-1.2,7.2-2.1c5.2-2.1,10.2-4.7,14.9-7.6c2.9-1.8,5.9-3.9,8.4-7.1c2.8-3.6,2.2-8.9-1.4-11.7c-3.6-2.8-8.9-2.2-11.7,1.4 c-0.9,1.1-2.5,2.2-4,3.2c-3.9,2.4-8.1,4.6-12.4,6.3c-0.7,0.3-1.4,0.6-2,0.7l-2.4-18.3c0.7-0.1,1.3-0.3,1.9-0.5 c5.2-1.6,8.1-5.7,10.9-9.9C1094.3,388.2,1095.5,386.9,1095.9,385.7z"/></g></g></g></svg>