<svg xmlns="http://www.w3.org/2000/svg" width="512" height="177.846" viewBox="0 167.078 512 177.846"><g fill="#FFF"><path d="M227.792 233.12h3.677v69.595h-3.678zM283.73 231.41c-20.88 0-36.634 15.76-36.634 36.507 0 20.88 15.754 36.505 36.633 36.505 20.88 0 36.637-15.626 36.637-36.505 0-20.747-15.758-36.506-36.638-36.506zm0 69.598c-18.778 0-32.96-14.182-32.96-33.09 0-18.91 14.18-33.09 32.96-33.09 18.777 0 32.962 14.18 32.962 33.09 0 18.908-14.184 33.09-32.963 33.09zM389.83 238.37c-7.88-6.433-17.332-6.96-22.19-6.96-11.03 0-23.245 5.124-27.575 15.103h-.266V233.12h-3.678v69.595h3.677v-40.05c0-17.465 10.77-27.838 28.233-27.838 10.505 0 16.148 3.414 19.695 6.565 5.252 4.727 8.536 12.474 8.536 24.553v36.77h3.678v-36.77c0-12.473-3.283-21.797-10.112-27.574zM420.295 233.12h3.677v69.595h-3.677zM476.233 301.008c-17.73 0-32.96-13.395-32.96-33.09 0-9.455 3.937-18.647 9.586-23.77 7.22-6.433 13.654-9.32 23.504-9.32 13.655 0 25.737 7.614 30.463 20.875h4.072c-5.516-16.413-20.486-24.292-34.667-24.292-21.143 0-36.64 16.02-36.64 36.64 0 21.666 16.415 36.372 36.64 36.372 16.546 0 29.676-9.454 34.534-23.636h-4.07c-3.413 10.374-14.707 20.222-30.464 20.222z"/><circle cx="229.632" cy="211.546" r="3.969"/><circle cx="422.132" cy="211.546" r="3.969"/><circle cx="90.024" cy="256" r="36.306"/><path d="M164.115 194.395c0-6.897-5.592-12.485-12.486-12.485-3.13 0-5.98 1.16-8.172 3.06-14.887-11.227-33.397-17.892-53.435-17.892C40.99 167.078 1.1 206.968 1.1 256c0 49.032 39.89 88.924 88.923 88.924 49.032 0 88.922-39.892 88.922-88.923 0-20.038-6.665-38.547-17.892-53.434 1.903-2.19 3.062-5.043 3.062-8.17zM90.023 341.932c-47.382 0-85.93-38.55-85.93-85.932s38.547-85.93 85.93-85.93c19.266 0 37.07 6.373 51.417 17.122-1.442 2.036-2.297 4.517-2.297 7.203 0 6.894 5.59 12.483 12.485 12.483 2.685 0 5.165-.855 7.202-2.297 10.75 14.35 17.123 32.153 17.123 51.42 0 47.382-38.547 85.932-85.93 85.932z"/></g></svg>