<svg xmlns="http://www.w3.org/2000/svg" xmlns:sodipodi="http://inkscape.sourceforge.net/DTD/sodipodi-0.dtd" width="400" height="400" sodipodi:version=".32" sodipodi:docbase="C:\Documents and Settings\Lukas\Desktop\Wikipedia" sodipodi:docname="lambda_lc.svg"><sodipodi:namedview pagecolor="#ffffff" bordercolor="#666666" borderopacity="1"/><path d="M295.035 285.896h8.546c0 25.004-4.035 43.204-12.106 54.598-8.07 11.394-18.278 17.092-30.622 17.092-9.97 0-19.545-3.72-28.724-11.157-9.18-7.44-17.408-27.617-24.688-60.534l-20.415-92.105-70.74 160.472H71.42l101.6-218.868c-5.38-28.328-11.87-49.296-19.466-62.907-7.596-13.61-17.012-20.415-28.25-20.415-9.02 0-16.853 3.403-23.5 10.208-6.646 6.805-10.445 17.487-11.394 32.047h-8.546c.475-23.264 5.143-41.86 14.006-55.785 8.862-13.927 19.94-20.97 33.234-21.128 8.545 0 16.616 3.482 24.213 10.445 7.596 6.963 14.243 18.99 19.94 36.082 5.697 17.09 14.48 52.382 26.35 105.873l16.854 75.25c6.806 31.177 13.927 51.988 21.365 62.433 7.438 10.445 16.46 15.746 27.062 15.904 17.725 0 27.774-12.502 30.148-37.506z" fill="currentColor"/></svg>