<svg version="1.0" xmlns="http://www.w3.org/2000/svg"
 width="40px" height="40px" viewBox="0 0 1280.000000 1280.000000"
 preserveAspectRatio="xMidYMid meet">
<metadata>
Created by potrace 1.15, written by Peter Selinger 2001-2017
</metadata>
<g transform="translate(0.000000,1280.000000) scale(0.100000,-0.100000)"
fill="#999" stroke="none">
<path d="M0 12778 c1 -13 54 -522 118 -1131 l117 -1108 295 -281 c2795 -2670
4340 -4151 4340 -4158 0 -7 -1077 -1218 -1160 -1304 l-28 -28 -528 397 c-291
219 -534 402 -539 406 -7 5 -162 -163 -395 -429 -212 -240 -386 -439 -388
-442 -1 -4 23 -18 55 -32 110 -48 1228 -581 1237 -589 17 -15 -50 -73 -106
-93 -48 -16 -76 -36 -169 -116 -29 -25 -29 -25 -15 -76 l13 -51 -64 -74 c-80
-93 -81 -94 -153 -109 -55 -12 -66 -19 -121 -78 l-61 -65 5 -54 6 -53 -70 -89
-70 -88 -68 -5 c-65 -5 -70 -7 -108 -49 -97 -105 -94 -99 -77 -157 l15 -51
-73 -70 c-48 -47 -86 -74 -110 -81 -21 -5 -55 -14 -76 -20 -24 -6 -56 -29 -95
-68 l-57 -58 16 -53 15 -53 -43 -55 c-24 -30 -49 -62 -56 -71 -8 -10 -37 -18
-84 -23 -70 -8 -73 -10 -128 -64 -30 -30 -59 -55 -64 -55 -4 0 -183 133 -397
295 -214 163 -395 298 -402 300 -13 5 -527 -762 -527 -786 0 -8 132 -108 292
-224 160 -115 297 -215 305 -221 13 -8 -2 -44 -91 -222 -58 -117 -106 -214
-106 -216 0 -6 1316 -956 1323 -956 3 0 93 53 199 118 106 65 203 124 216 131
21 11 45 -4 314 -200 161 -117 299 -214 308 -216 12 -3 622 477 693 547 18 17
7 27 -342 291 -198 151 -356 276 -351 277 6 2 36 31 68 64 48 50 59 68 67 113
9 47 20 65 90 143 l79 90 76 7 77 7 51 69 c44 58 52 75 52 112 0 40 5 47 73
115 l72 72 80 6 80 7 68 60 c45 39 66 65 63 76 -3 9 -8 36 -11 61 l-7 46 76
65 c69 60 82 67 151 82 71 15 78 19 130 74 53 57 54 59 55 118 l1 60 85 75
c77 67 93 77 157 93 64 16 79 25 129 75 56 54 58 58 58 108 0 37 5 56 18 67
18 16 27 8 184 -151 90 -92 290 -296 443 -454 154 -159 282 -288 285 -288 3 0
188 182 413 403 l407 402 -510 350 c-280 193 -509 353 -507 357 3 11 1079
1038 1087 1038 8 0 1084 -1027 1087 -1038 2 -4 -227 -164 -507 -357 l-510
-350 407 -402 c225 -221 410 -403 413 -403 3 0 131 129 285 288 153 158 353
362 443 454 157 159 166 167 184 151 13 -11 18 -30 18 -67 0 -50 2 -54 58
-108 50 -50 65 -59 129 -75 64 -16 80 -26 157 -93 l85 -75 1 -60 c1 -59 2 -61
55 -118 52 -55 59 -59 130 -74 69 -15 82 -22 151 -82 l76 -65 -7 -46 c-3 -25
-8 -52 -11 -61 -3 -11 18 -37 63 -76 l68 -60 80 -7 80 -6 72 -72 c68 -68 73
-75 73 -115 0 -37 8 -54 52 -112 l51 -69 77 -7 76 -7 79 -90 c70 -78 81 -96
90 -143 8 -45 19 -63 67 -113 32 -33 62 -62 68 -64 5 -1 -153 -126 -351 -277
-349 -264 -360 -274 -342 -291 71 -70 681 -550 693 -547 9 2 147 99 308 216
269 196 293 211 314 200 13 -7 110 -66 216 -131 106 -65 196 -118 199 -118 7
0 1323 950 1323 956 0 2 -48 99 -106 216 -89 178 -104 214 -91 222 8 6 145
106 305 221 160 116 292 216 292 224 0 24 -514 791 -527 786 -7 -2 -188 -137
-402 -300 -214 -162 -393 -295 -397 -295 -5 0 -34 25 -64 55 -55 54 -58 56
-128 64 -47 5 -76 13 -84 23 -7 9 -32 41 -56 71 l-43 55 15 53 16 53 -57 58
c-39 39 -71 62 -95 68 -21 6 -55 15 -75 20 -25 7 -63 34 -111 81 l-73 70 15
51 c17 58 20 52 -77 157 -38 42 -43 44 -108 49 l-68 5 -70 88 -70 89 6 53 5
54 -61 65 c-55 59 -66 66 -121 78 -72 15 -73 16 -153 109 l-64 74 13 51 c14
51 14 51 -15 76 -93 80 -121 100 -169 116 -56 20 -123 78 -106 93 9 8 1127
541 1237 589 32 14 56 28 55 32 -2 3 -176 202 -388 442 -233 266 -388 434
-395 429 -5 -4 -248 -187 -539 -406 l-528 -397 -28 28 c-83 86 -1160 1297
-1160 1304 0 7 2573 2472 4455 4267 l180 172 117 1108 c64 609 117 1118 118
1131 0 15 -6 22 -19 22 -13 0 -2323 -689 -2528 -754 -16 -5 -22 -2 -25 10 -2
11 -671 -729 -1908 -2111 -1048 -1170 -1908 -2133 -1912 -2139 -6 -8 -10 -8
-15 0 -5 6 -865 969 -1913 2139 -1237 1382 -1906 2122 -1908 2111 -3 -12 -9
-15 -25 -10 -205 65 -2515 754 -2528 754 -13 0 -19 -7 -19 -22z"/>
</g>
</svg>
